M48
; DRILL file {KiCad 5.1.9+dfsg1-1~bpo10+1} date Sun Dec 11 19:13:28 2022
; FORMAT={-:-/ absolute / inch / decimal}
; #@! TF.CreationDate,2022-12-11T19:13:28+01:00
; #@! TF.GenerationSoftware,Kicad,Pcbnew,5.1.9+dfsg1-1~bpo10+1
; #@! TF.FileFunction,Plated,1,2,PTH
FMAT,2
INCH
T1C0.0394
%
G90
G05
T1
X3.837Y-1.9685
X3.837Y-2.0685
X3.837Y-2.1685
X3.837Y-2.2685
X3.837Y-2.3685
X3.837Y-2.4685
X3.937Y-1.9685
X3.937Y-2.0685
X3.937Y-2.1685
X3.937Y-2.2685
X3.937Y-2.3685
X3.937Y-2.4685
X4.5276Y-1.9685
X4.5276Y-2.0685
X4.5276Y-2.1685
X4.5276Y-2.2685
X4.5276Y-2.3685
X4.5276Y-2.4685
X4.6276Y-1.9685
X4.6276Y-2.0685
X4.6276Y-2.1685
X4.6276Y-2.2685
X4.6276Y-2.3685
X4.6276Y-2.4685
T0
M30
