%TF.GenerationSoftware,KiCad,Pcbnew,5.1.9+dfsg1-1~bpo10+1*%
%TF.CreationDate,2022-12-11T19:13:10+01:00*%
%TF.ProjectId,PI2PMODSPI,50493250-4d4f-4445-9350-492e6b696361,rev?*%
%TF.SameCoordinates,Original*%
%TF.FileFunction,Legend,Top*%
%TF.FilePolarity,Positive*%
%FSLAX46Y46*%
G04 Gerber Fmt 4.6, Leading zero omitted, Abs format (unit mm)*
G04 Created by KiCad (PCBNEW 5.1.9+dfsg1-1~bpo10+1) date 2022-12-11 19:13:10*
%MOMM*%
%LPD*%
G01*
G04 APERTURE LIST*
%ADD10C,0.150000*%
%ADD11C,0.300000*%
%ADD12C,0.120000*%
G04 APERTURE END LIST*
D10*
X103192114Y-51591750D02*
X103128628Y-51560007D01*
X103033400Y-51560007D01*
X102938171Y-51591750D01*
X102874685Y-51655235D01*
X102842942Y-51718721D01*
X102811200Y-51845692D01*
X102811200Y-51940921D01*
X102842942Y-52067892D01*
X102874685Y-52131378D01*
X102938171Y-52194864D01*
X103033400Y-52226607D01*
X103096885Y-52226607D01*
X103192114Y-52194864D01*
X103223857Y-52163121D01*
X103223857Y-51940921D01*
X103096885Y-51940921D01*
X103509542Y-52226607D02*
X103509542Y-51560007D01*
X103890457Y-52226607D01*
X103890457Y-51560007D01*
X104207885Y-52226607D02*
X104207885Y-51560007D01*
X104366600Y-51560007D01*
X104461828Y-51591750D01*
X104525314Y-51655235D01*
X104557057Y-51718721D01*
X104588800Y-51845692D01*
X104588800Y-51940921D01*
X104557057Y-52067892D01*
X104525314Y-52131378D01*
X104461828Y-52194864D01*
X104366600Y-52226607D01*
X104207885Y-52226607D01*
X102509642Y-53630450D02*
X102477900Y-53598707D01*
X102414414Y-53503478D01*
X102382671Y-53439992D01*
X102350928Y-53344764D01*
X102319185Y-53186050D01*
X102319185Y-53059078D01*
X102350928Y-52900364D01*
X102382671Y-52805135D01*
X102414414Y-52741650D01*
X102477900Y-52646421D01*
X102509642Y-52614678D01*
X102763585Y-53376507D02*
X102763585Y-52709907D01*
X102763585Y-52963850D02*
X102827071Y-52932107D01*
X102954042Y-52932107D01*
X103017528Y-52963850D01*
X103049271Y-52995592D01*
X103081014Y-53059078D01*
X103081014Y-53249535D01*
X103049271Y-53313021D01*
X103017528Y-53344764D01*
X102954042Y-53376507D01*
X102827071Y-53376507D01*
X102763585Y-53344764D01*
X103461928Y-53376507D02*
X103398442Y-53344764D01*
X103366700Y-53313021D01*
X103334957Y-53249535D01*
X103334957Y-53059078D01*
X103366700Y-52995592D01*
X103398442Y-52963850D01*
X103461928Y-52932107D01*
X103557157Y-52932107D01*
X103620642Y-52963850D01*
X103652385Y-52995592D01*
X103684128Y-53059078D01*
X103684128Y-53249535D01*
X103652385Y-53313021D01*
X103620642Y-53344764D01*
X103557157Y-53376507D01*
X103461928Y-53376507D01*
X103874585Y-52932107D02*
X104128528Y-52932107D01*
X103969814Y-52709907D02*
X103969814Y-53281278D01*
X104001557Y-53344764D01*
X104065042Y-53376507D01*
X104128528Y-53376507D01*
X104350728Y-53376507D02*
X104350728Y-52709907D01*
X104636414Y-53376507D02*
X104636414Y-53027335D01*
X104604671Y-52963850D01*
X104541185Y-52932107D01*
X104445957Y-52932107D01*
X104382471Y-52963850D01*
X104350728Y-52995592D01*
X104890357Y-53630450D02*
X104922100Y-53598707D01*
X104985585Y-53503478D01*
X105017328Y-53439992D01*
X105049071Y-53344764D01*
X105080814Y-53186050D01*
X105080814Y-53059078D01*
X105049071Y-52900364D01*
X105017328Y-52805135D01*
X104985585Y-52741650D01*
X104922100Y-52646421D01*
X104890357Y-52614678D01*
X111292114Y-51591750D02*
X111228628Y-51560007D01*
X111133400Y-51560007D01*
X111038171Y-51591750D01*
X110974685Y-51655235D01*
X110942942Y-51718721D01*
X110911200Y-51845692D01*
X110911200Y-51940921D01*
X110942942Y-52067892D01*
X110974685Y-52131378D01*
X111038171Y-52194864D01*
X111133400Y-52226607D01*
X111196885Y-52226607D01*
X111292114Y-52194864D01*
X111323857Y-52163121D01*
X111323857Y-51940921D01*
X111196885Y-51940921D01*
X111609542Y-52226607D02*
X111609542Y-51560007D01*
X111990457Y-52226607D01*
X111990457Y-51560007D01*
X112307885Y-52226607D02*
X112307885Y-51560007D01*
X112466600Y-51560007D01*
X112561828Y-51591750D01*
X112625314Y-51655235D01*
X112657057Y-51718721D01*
X112688800Y-51845692D01*
X112688800Y-51940921D01*
X112657057Y-52067892D01*
X112625314Y-52131378D01*
X112561828Y-52194864D01*
X112466600Y-52226607D01*
X112307885Y-52226607D01*
X110911200Y-53630450D02*
X110879457Y-53598707D01*
X110815971Y-53503478D01*
X110784228Y-53439992D01*
X110752485Y-53344764D01*
X110720742Y-53186050D01*
X110720742Y-53059078D01*
X110752485Y-52900364D01*
X110784228Y-52805135D01*
X110815971Y-52741650D01*
X110879457Y-52646421D01*
X110911200Y-52614678D01*
X111069914Y-52932107D02*
X111323857Y-52932107D01*
X111165142Y-52709907D02*
X111165142Y-53281278D01*
X111196885Y-53344764D01*
X111260371Y-53376507D01*
X111323857Y-53376507D01*
X111641285Y-53376507D02*
X111577800Y-53344764D01*
X111546057Y-53313021D01*
X111514314Y-53249535D01*
X111514314Y-53059078D01*
X111546057Y-52995592D01*
X111577800Y-52963850D01*
X111641285Y-52932107D01*
X111736514Y-52932107D01*
X111800000Y-52963850D01*
X111831742Y-52995592D01*
X111863485Y-53059078D01*
X111863485Y-53249535D01*
X111831742Y-53313021D01*
X111800000Y-53344764D01*
X111736514Y-53376507D01*
X111641285Y-53376507D01*
X112149171Y-52932107D02*
X112149171Y-53598707D01*
X112149171Y-52963850D02*
X112212657Y-52932107D01*
X112339628Y-52932107D01*
X112403114Y-52963850D01*
X112434857Y-52995592D01*
X112466600Y-53059078D01*
X112466600Y-53249535D01*
X112434857Y-53313021D01*
X112403114Y-53344764D01*
X112339628Y-53376507D01*
X112212657Y-53376507D01*
X112149171Y-53344764D01*
X112688800Y-53630450D02*
X112720542Y-53598707D01*
X112784028Y-53503478D01*
X112815771Y-53439992D01*
X112847514Y-53344764D01*
X112879257Y-53186050D01*
X112879257Y-53059078D01*
X112847514Y-52900364D01*
X112815771Y-52805135D01*
X112784028Y-52741650D01*
X112720542Y-52646421D01*
X112688800Y-52614678D01*
X110292114Y-59291750D02*
X110228628Y-59260007D01*
X110133400Y-59260007D01*
X110038171Y-59291750D01*
X109974685Y-59355235D01*
X109942942Y-59418721D01*
X109911200Y-59545692D01*
X109911200Y-59640921D01*
X109942942Y-59767892D01*
X109974685Y-59831378D01*
X110038171Y-59894864D01*
X110133400Y-59926607D01*
X110196885Y-59926607D01*
X110292114Y-59894864D01*
X110323857Y-59863121D01*
X110323857Y-59640921D01*
X110196885Y-59640921D01*
X110609542Y-59926607D02*
X110609542Y-59260007D01*
X110990457Y-59926607D01*
X110990457Y-59260007D01*
X111307885Y-59926607D02*
X111307885Y-59260007D01*
X111466600Y-59260007D01*
X111561828Y-59291750D01*
X111625314Y-59355235D01*
X111657057Y-59418721D01*
X111688800Y-59545692D01*
X111688800Y-59640921D01*
X111657057Y-59767892D01*
X111625314Y-59831378D01*
X111561828Y-59894864D01*
X111466600Y-59926607D01*
X111307885Y-59926607D01*
X108974785Y-61330450D02*
X108943042Y-61298707D01*
X108879557Y-61203478D01*
X108847814Y-61139992D01*
X108816071Y-61044764D01*
X108784328Y-60886050D01*
X108784328Y-60759078D01*
X108816071Y-60600364D01*
X108847814Y-60505135D01*
X108879557Y-60441650D01*
X108943042Y-60346421D01*
X108974785Y-60314678D01*
X109228728Y-61076507D02*
X109228728Y-60409907D01*
X109228728Y-60663850D02*
X109292214Y-60632107D01*
X109419185Y-60632107D01*
X109482671Y-60663850D01*
X109514414Y-60695592D01*
X109546157Y-60759078D01*
X109546157Y-60949535D01*
X109514414Y-61013021D01*
X109482671Y-61044764D01*
X109419185Y-61076507D01*
X109292214Y-61076507D01*
X109228728Y-61044764D01*
X109927071Y-61076507D02*
X109863585Y-61044764D01*
X109831842Y-61013021D01*
X109800100Y-60949535D01*
X109800100Y-60759078D01*
X109831842Y-60695592D01*
X109863585Y-60663850D01*
X109927071Y-60632107D01*
X110022300Y-60632107D01*
X110085785Y-60663850D01*
X110117528Y-60695592D01*
X110149271Y-60759078D01*
X110149271Y-60949535D01*
X110117528Y-61013021D01*
X110085785Y-61044764D01*
X110022300Y-61076507D01*
X109927071Y-61076507D01*
X110339728Y-60632107D02*
X110593671Y-60632107D01*
X110434957Y-60409907D02*
X110434957Y-60981278D01*
X110466700Y-61044764D01*
X110530185Y-61076507D01*
X110593671Y-61076507D01*
X110720642Y-60632107D02*
X110974585Y-60632107D01*
X110815871Y-60409907D02*
X110815871Y-60981278D01*
X110847614Y-61044764D01*
X110911100Y-61076507D01*
X110974585Y-61076507D01*
X111292014Y-61076507D02*
X111228528Y-61044764D01*
X111196785Y-61013021D01*
X111165042Y-60949535D01*
X111165042Y-60759078D01*
X111196785Y-60695592D01*
X111228528Y-60663850D01*
X111292014Y-60632107D01*
X111387242Y-60632107D01*
X111450728Y-60663850D01*
X111482471Y-60695592D01*
X111514214Y-60759078D01*
X111514214Y-60949535D01*
X111482471Y-61013021D01*
X111450728Y-61044764D01*
X111387242Y-61076507D01*
X111292014Y-61076507D01*
X111799900Y-61076507D02*
X111799900Y-60632107D01*
X111799900Y-60695592D02*
X111831642Y-60663850D01*
X111895128Y-60632107D01*
X111990357Y-60632107D01*
X112053842Y-60663850D01*
X112085585Y-60727335D01*
X112085585Y-61076507D01*
X112085585Y-60727335D02*
X112117328Y-60663850D01*
X112180814Y-60632107D01*
X112276042Y-60632107D01*
X112339528Y-60663850D01*
X112371271Y-60727335D01*
X112371271Y-61076507D01*
X112625214Y-61330450D02*
X112656957Y-61298707D01*
X112720442Y-61203478D01*
X112752185Y-61139992D01*
X112783928Y-61044764D01*
X112815671Y-60886050D01*
X112815671Y-60759078D01*
X112783928Y-60600364D01*
X112752185Y-60505135D01*
X112720442Y-60441650D01*
X112656957Y-60346421D01*
X112625214Y-60314678D01*
X110525514Y-62172664D02*
X111033400Y-62172664D01*
X110779457Y-62426607D02*
X110779457Y-61918721D01*
X111287342Y-61760007D02*
X111700000Y-61760007D01*
X111477800Y-62013950D01*
X111573028Y-62013950D01*
X111636514Y-62045692D01*
X111668257Y-62077435D01*
X111700000Y-62140921D01*
X111700000Y-62299635D01*
X111668257Y-62363121D01*
X111636514Y-62394864D01*
X111573028Y-62426607D01*
X111382571Y-62426607D01*
X111319085Y-62394864D01*
X111287342Y-62363121D01*
X111890457Y-61760007D02*
X112112657Y-62426607D01*
X112334857Y-61760007D01*
X112493571Y-61760007D02*
X112906228Y-61760007D01*
X112684028Y-62013950D01*
X112779257Y-62013950D01*
X112842742Y-62045692D01*
X112874485Y-62077435D01*
X112906228Y-62140921D01*
X112906228Y-62299635D01*
X112874485Y-62363121D01*
X112842742Y-62394864D01*
X112779257Y-62426607D01*
X112588800Y-62426607D01*
X112525314Y-62394864D01*
X112493571Y-62363121D01*
X110811200Y-63830450D02*
X110779457Y-63798707D01*
X110715971Y-63703478D01*
X110684228Y-63639992D01*
X110652485Y-63544764D01*
X110620742Y-63386050D01*
X110620742Y-63259078D01*
X110652485Y-63100364D01*
X110684228Y-63005135D01*
X110715971Y-62941650D01*
X110779457Y-62846421D01*
X110811200Y-62814678D01*
X110969914Y-63132107D02*
X111223857Y-63132107D01*
X111065142Y-62909907D02*
X111065142Y-63481278D01*
X111096885Y-63544764D01*
X111160371Y-63576507D01*
X111223857Y-63576507D01*
X111541285Y-63576507D02*
X111477800Y-63544764D01*
X111446057Y-63513021D01*
X111414314Y-63449535D01*
X111414314Y-63259078D01*
X111446057Y-63195592D01*
X111477800Y-63163850D01*
X111541285Y-63132107D01*
X111636514Y-63132107D01*
X111700000Y-63163850D01*
X111731742Y-63195592D01*
X111763485Y-63259078D01*
X111763485Y-63449535D01*
X111731742Y-63513021D01*
X111700000Y-63544764D01*
X111636514Y-63576507D01*
X111541285Y-63576507D01*
X112049171Y-63132107D02*
X112049171Y-63798707D01*
X112049171Y-63163850D02*
X112112657Y-63132107D01*
X112239628Y-63132107D01*
X112303114Y-63163850D01*
X112334857Y-63195592D01*
X112366600Y-63259078D01*
X112366600Y-63449535D01*
X112334857Y-63513021D01*
X112303114Y-63544764D01*
X112239628Y-63576507D01*
X112112657Y-63576507D01*
X112049171Y-63544764D01*
X112588800Y-63830450D02*
X112620542Y-63798707D01*
X112684028Y-63703478D01*
X112715771Y-63639992D01*
X112747514Y-63544764D01*
X112779257Y-63386050D01*
X112779257Y-63259078D01*
X112747514Y-63100364D01*
X112715771Y-63005135D01*
X112684028Y-62941650D01*
X112620542Y-62846421D01*
X112588800Y-62814678D01*
X105838095Y-63252380D02*
X105266666Y-63252380D01*
X105552380Y-63252380D02*
X105552380Y-62252380D01*
X105457142Y-62395238D01*
X105361904Y-62490476D01*
X105266666Y-62538095D01*
X106171428Y-62252380D02*
X106838095Y-62252380D01*
X106409523Y-63252380D01*
X107266666Y-63204761D02*
X107266666Y-63252380D01*
X107219047Y-63347619D01*
X107171428Y-63395238D01*
X108980952Y-63252380D02*
X108409523Y-63252380D01*
X108695238Y-63252380D02*
X108695238Y-62252380D01*
X108600000Y-62395238D01*
X108504761Y-62490476D01*
X108409523Y-62538095D01*
X109552380Y-62680952D02*
X109457142Y-62633333D01*
X109409523Y-62585714D01*
X109361904Y-62490476D01*
X109361904Y-62442857D01*
X109409523Y-62347619D01*
X109457142Y-62300000D01*
X109552380Y-62252380D01*
X109742857Y-62252380D01*
X109838095Y-62300000D01*
X109885714Y-62347619D01*
X109933333Y-62442857D01*
X109933333Y-62490476D01*
X109885714Y-62585714D01*
X109838095Y-62633333D01*
X109742857Y-62680952D01*
X109552380Y-62680952D01*
X109457142Y-62728571D01*
X109409523Y-62776190D01*
X109361904Y-62871428D01*
X109361904Y-63061904D01*
X109409523Y-63157142D01*
X109457142Y-63204761D01*
X109552380Y-63252380D01*
X109742857Y-63252380D01*
X109838095Y-63204761D01*
X109885714Y-63157142D01*
X109933333Y-63061904D01*
X109933333Y-62871428D01*
X109885714Y-62776190D01*
X109838095Y-62728571D01*
X109742857Y-62680952D01*
X107666666Y-49547619D02*
X107714285Y-49500000D01*
X107809523Y-49452380D01*
X108047619Y-49452380D01*
X108142857Y-49500000D01*
X108190476Y-49547619D01*
X108238095Y-49642857D01*
X108238095Y-49738095D01*
X108190476Y-49880952D01*
X107619047Y-50452380D01*
X108238095Y-50452380D01*
X108571428Y-49452380D02*
X109238095Y-49452380D01*
X108809523Y-50452380D01*
X109666666Y-50404761D02*
X109666666Y-50452380D01*
X109619047Y-50547619D01*
X109571428Y-50595238D01*
X110809523Y-49547619D02*
X110857142Y-49500000D01*
X110952380Y-49452380D01*
X111190476Y-49452380D01*
X111285714Y-49500000D01*
X111333333Y-49547619D01*
X111380952Y-49642857D01*
X111380952Y-49738095D01*
X111333333Y-49880952D01*
X110761904Y-50452380D01*
X111380952Y-50452380D01*
X111952380Y-49880952D02*
X111857142Y-49833333D01*
X111809523Y-49785714D01*
X111761904Y-49690476D01*
X111761904Y-49642857D01*
X111809523Y-49547619D01*
X111857142Y-49500000D01*
X111952380Y-49452380D01*
X112142857Y-49452380D01*
X112238095Y-49500000D01*
X112285714Y-49547619D01*
X112333333Y-49642857D01*
X112333333Y-49690476D01*
X112285714Y-49785714D01*
X112238095Y-49833333D01*
X112142857Y-49880952D01*
X111952380Y-49880952D01*
X111857142Y-49928571D01*
X111809523Y-49976190D01*
X111761904Y-50071428D01*
X111761904Y-50261904D01*
X111809523Y-50357142D01*
X111857142Y-50404761D01*
X111952380Y-50452380D01*
X112142857Y-50452380D01*
X112238095Y-50404761D01*
X112285714Y-50357142D01*
X112333333Y-50261904D01*
X112333333Y-50071428D01*
X112285714Y-49976190D01*
X112238095Y-49928571D01*
X112142857Y-49880952D01*
D11*
X112678571Y-57642857D02*
X111964285Y-58142857D01*
X112678571Y-58500000D02*
X111178571Y-58500000D01*
X111178571Y-57928571D01*
X111250000Y-57785714D01*
X111321428Y-57714285D01*
X111464285Y-57642857D01*
X111678571Y-57642857D01*
X111821428Y-57714285D01*
X111892857Y-57785714D01*
X111964285Y-57928571D01*
X111964285Y-58500000D01*
X112678571Y-57000000D02*
X111178571Y-57000000D01*
X111178571Y-56428571D01*
X111250000Y-56285714D01*
X111321428Y-56214285D01*
X111464285Y-56142857D01*
X111678571Y-56142857D01*
X111821428Y-56214285D01*
X111892857Y-56285714D01*
X111964285Y-56428571D01*
X111964285Y-57000000D01*
X112678571Y-55500000D02*
X111678571Y-55500000D01*
X111178571Y-55500000D02*
X111250000Y-55571428D01*
X111321428Y-55500000D01*
X111250000Y-55428571D01*
X111178571Y-55500000D01*
X111321428Y-55500000D01*
X104178571Y-61250000D02*
X102678571Y-61250000D01*
X102678571Y-60678571D01*
X102750000Y-60535714D01*
X102821428Y-60464285D01*
X102964285Y-60392857D01*
X103178571Y-60392857D01*
X103321428Y-60464285D01*
X103392857Y-60535714D01*
X103464285Y-60678571D01*
X103464285Y-61250000D01*
X104178571Y-59750000D02*
X103178571Y-59750000D01*
X103321428Y-59750000D02*
X103250000Y-59678571D01*
X103178571Y-59535714D01*
X103178571Y-59321428D01*
X103250000Y-59178571D01*
X103392857Y-59107142D01*
X104178571Y-59107142D01*
X103392857Y-59107142D02*
X103250000Y-59035714D01*
X103178571Y-58892857D01*
X103178571Y-58678571D01*
X103250000Y-58535714D01*
X103392857Y-58464285D01*
X104178571Y-58464285D01*
X104178571Y-57535714D02*
X104107142Y-57678571D01*
X104035714Y-57750000D01*
X103892857Y-57821428D01*
X103464285Y-57821428D01*
X103321428Y-57750000D01*
X103250000Y-57678571D01*
X103178571Y-57535714D01*
X103178571Y-57321428D01*
X103250000Y-57178571D01*
X103321428Y-57107142D01*
X103464285Y-57035714D01*
X103892857Y-57035714D01*
X104035714Y-57107142D01*
X104107142Y-57178571D01*
X104178571Y-57321428D01*
X104178571Y-57535714D01*
X104178571Y-55750000D02*
X102678571Y-55750000D01*
X104107142Y-55750000D02*
X104178571Y-55892857D01*
X104178571Y-56178571D01*
X104107142Y-56321428D01*
X104035714Y-56392857D01*
X103892857Y-56464285D01*
X103464285Y-56464285D01*
X103321428Y-56392857D01*
X103250000Y-56321428D01*
X103178571Y-56178571D01*
X103178571Y-55892857D01*
X103250000Y-55750000D01*
D10*
X102525514Y-49472664D02*
X103033400Y-49472664D01*
X102779457Y-49726607D02*
X102779457Y-49218721D01*
X103287342Y-49060007D02*
X103700000Y-49060007D01*
X103477800Y-49313950D01*
X103573028Y-49313950D01*
X103636514Y-49345692D01*
X103668257Y-49377435D01*
X103700000Y-49440921D01*
X103700000Y-49599635D01*
X103668257Y-49663121D01*
X103636514Y-49694864D01*
X103573028Y-49726607D01*
X103382571Y-49726607D01*
X103319085Y-49694864D01*
X103287342Y-49663121D01*
X103890457Y-49060007D02*
X104112657Y-49726607D01*
X104334857Y-49060007D01*
X104493571Y-49060007D02*
X104906228Y-49060007D01*
X104684028Y-49313950D01*
X104779257Y-49313950D01*
X104842742Y-49345692D01*
X104874485Y-49377435D01*
X104906228Y-49440921D01*
X104906228Y-49599635D01*
X104874485Y-49663121D01*
X104842742Y-49694864D01*
X104779257Y-49726607D01*
X104588800Y-49726607D01*
X104525314Y-49694864D01*
X104493571Y-49663121D01*
X102509642Y-51130450D02*
X102477900Y-51098707D01*
X102414414Y-51003478D01*
X102382671Y-50939992D01*
X102350928Y-50844764D01*
X102319185Y-50686050D01*
X102319185Y-50559078D01*
X102350928Y-50400364D01*
X102382671Y-50305135D01*
X102414414Y-50241650D01*
X102477900Y-50146421D01*
X102509642Y-50114678D01*
X102763585Y-50876507D02*
X102763585Y-50209907D01*
X102763585Y-50463850D02*
X102827071Y-50432107D01*
X102954042Y-50432107D01*
X103017528Y-50463850D01*
X103049271Y-50495592D01*
X103081014Y-50559078D01*
X103081014Y-50749535D01*
X103049271Y-50813021D01*
X103017528Y-50844764D01*
X102954042Y-50876507D01*
X102827071Y-50876507D01*
X102763585Y-50844764D01*
X103461928Y-50876507D02*
X103398442Y-50844764D01*
X103366700Y-50813021D01*
X103334957Y-50749535D01*
X103334957Y-50559078D01*
X103366700Y-50495592D01*
X103398442Y-50463850D01*
X103461928Y-50432107D01*
X103557157Y-50432107D01*
X103620642Y-50463850D01*
X103652385Y-50495592D01*
X103684128Y-50559078D01*
X103684128Y-50749535D01*
X103652385Y-50813021D01*
X103620642Y-50844764D01*
X103557157Y-50876507D01*
X103461928Y-50876507D01*
X103874585Y-50432107D02*
X104128528Y-50432107D01*
X103969814Y-50209907D02*
X103969814Y-50781278D01*
X104001557Y-50844764D01*
X104065042Y-50876507D01*
X104128528Y-50876507D01*
X104350728Y-50876507D02*
X104350728Y-50209907D01*
X104636414Y-50876507D02*
X104636414Y-50527335D01*
X104604671Y-50463850D01*
X104541185Y-50432107D01*
X104445957Y-50432107D01*
X104382471Y-50463850D01*
X104350728Y-50495592D01*
X104890357Y-51130450D02*
X104922100Y-51098707D01*
X104985585Y-51003478D01*
X105017328Y-50939992D01*
X105049071Y-50844764D01*
X105080814Y-50686050D01*
X105080814Y-50559078D01*
X105049071Y-50400364D01*
X105017328Y-50305135D01*
X104985585Y-50241650D01*
X104922100Y-50146421D01*
X104890357Y-50114678D01*
D12*
%TO.C,J2*%
X127630000Y-63910000D02*
X119000000Y-63910000D01*
X127630000Y-63791905D02*
X119000000Y-63791905D01*
X127630000Y-63673810D02*
X119000000Y-63673810D01*
X127630000Y-63555715D02*
X119000000Y-63555715D01*
X127630000Y-63437620D02*
X119000000Y-63437620D01*
X127630000Y-63319525D02*
X119000000Y-63319525D01*
X127630000Y-63201430D02*
X119000000Y-63201430D01*
X127630000Y-63083335D02*
X119000000Y-63083335D01*
X127630000Y-62965240D02*
X119000000Y-62965240D01*
X127630000Y-62847145D02*
X119000000Y-62847145D01*
X127630000Y-62729050D02*
X119000000Y-62729050D01*
X127630000Y-62610955D02*
X119000000Y-62610955D01*
X127630000Y-62492860D02*
X119000000Y-62492860D01*
X127630000Y-62374765D02*
X119000000Y-62374765D01*
X127630000Y-62256670D02*
X119000000Y-62256670D01*
X127630000Y-62138575D02*
X119000000Y-62138575D01*
X127630000Y-62020480D02*
X119000000Y-62020480D01*
X127630000Y-61902385D02*
X119000000Y-61902385D01*
X127630000Y-61784290D02*
X119000000Y-61784290D01*
X127630000Y-61666195D02*
X119000000Y-61666195D01*
X127630000Y-61548100D02*
X119000000Y-61548100D01*
X119000000Y-63060000D02*
X118590000Y-63060000D01*
X116490000Y-63060000D02*
X116110000Y-63060000D01*
X119000000Y-62340000D02*
X118590000Y-62340000D01*
X116490000Y-62340000D02*
X116110000Y-62340000D01*
X119000000Y-60520000D02*
X118590000Y-60520000D01*
X116490000Y-60520000D02*
X116050000Y-60520000D01*
X119000000Y-59800000D02*
X118590000Y-59800000D01*
X116490000Y-59800000D02*
X116050000Y-59800000D01*
X119000000Y-57980000D02*
X118590000Y-57980000D01*
X116490000Y-57980000D02*
X116050000Y-57980000D01*
X119000000Y-57260000D02*
X118590000Y-57260000D01*
X116490000Y-57260000D02*
X116050000Y-57260000D01*
X119000000Y-55440000D02*
X118590000Y-55440000D01*
X116490000Y-55440000D02*
X116050000Y-55440000D01*
X119000000Y-54720000D02*
X118590000Y-54720000D01*
X116490000Y-54720000D02*
X116050000Y-54720000D01*
X119000000Y-52900000D02*
X118590000Y-52900000D01*
X116490000Y-52900000D02*
X116050000Y-52900000D01*
X119000000Y-52180000D02*
X118590000Y-52180000D01*
X116490000Y-52180000D02*
X116050000Y-52180000D01*
X119000000Y-50360000D02*
X118590000Y-50360000D01*
X116490000Y-50360000D02*
X116050000Y-50360000D01*
X119000000Y-49640000D02*
X118590000Y-49640000D01*
X116490000Y-49640000D02*
X116050000Y-49640000D01*
X127630000Y-61430000D02*
X119000000Y-61430000D01*
X127630000Y-58890000D02*
X119000000Y-58890000D01*
X127630000Y-56350000D02*
X119000000Y-56350000D01*
X127630000Y-53810000D02*
X119000000Y-53810000D01*
X127630000Y-51270000D02*
X119000000Y-51270000D01*
X127630000Y-64030000D02*
X119000000Y-64030000D01*
X119000000Y-64030000D02*
X119000000Y-48670000D01*
X127630000Y-48670000D02*
X119000000Y-48670000D01*
X127630000Y-64030000D02*
X127630000Y-48670000D01*
X113890000Y-64030000D02*
X113890000Y-62700000D01*
X115000000Y-64030000D02*
X113890000Y-64030000D01*
%TO.C,J1*%
X87370000Y-48790000D02*
X96000000Y-48790000D01*
X87370000Y-48908095D02*
X96000000Y-48908095D01*
X87370000Y-49026190D02*
X96000000Y-49026190D01*
X87370000Y-49144285D02*
X96000000Y-49144285D01*
X87370000Y-49262380D02*
X96000000Y-49262380D01*
X87370000Y-49380475D02*
X96000000Y-49380475D01*
X87370000Y-49498570D02*
X96000000Y-49498570D01*
X87370000Y-49616665D02*
X96000000Y-49616665D01*
X87370000Y-49734760D02*
X96000000Y-49734760D01*
X87370000Y-49852855D02*
X96000000Y-49852855D01*
X87370000Y-49970950D02*
X96000000Y-49970950D01*
X87370000Y-50089045D02*
X96000000Y-50089045D01*
X87370000Y-50207140D02*
X96000000Y-50207140D01*
X87370000Y-50325235D02*
X96000000Y-50325235D01*
X87370000Y-50443330D02*
X96000000Y-50443330D01*
X87370000Y-50561425D02*
X96000000Y-50561425D01*
X87370000Y-50679520D02*
X96000000Y-50679520D01*
X87370000Y-50797615D02*
X96000000Y-50797615D01*
X87370000Y-50915710D02*
X96000000Y-50915710D01*
X87370000Y-51033805D02*
X96000000Y-51033805D01*
X87370000Y-51151900D02*
X96000000Y-51151900D01*
X96000000Y-49640000D02*
X96410000Y-49640000D01*
X98510000Y-49640000D02*
X98890000Y-49640000D01*
X96000000Y-50360000D02*
X96410000Y-50360000D01*
X98510000Y-50360000D02*
X98890000Y-50360000D01*
X96000000Y-52180000D02*
X96410000Y-52180000D01*
X98510000Y-52180000D02*
X98950000Y-52180000D01*
X96000000Y-52900000D02*
X96410000Y-52900000D01*
X98510000Y-52900000D02*
X98950000Y-52900000D01*
X96000000Y-54720000D02*
X96410000Y-54720000D01*
X98510000Y-54720000D02*
X98950000Y-54720000D01*
X96000000Y-55440000D02*
X96410000Y-55440000D01*
X98510000Y-55440000D02*
X98950000Y-55440000D01*
X96000000Y-57260000D02*
X96410000Y-57260000D01*
X98510000Y-57260000D02*
X98950000Y-57260000D01*
X96000000Y-57980000D02*
X96410000Y-57980000D01*
X98510000Y-57980000D02*
X98950000Y-57980000D01*
X96000000Y-59800000D02*
X96410000Y-59800000D01*
X98510000Y-59800000D02*
X98950000Y-59800000D01*
X96000000Y-60520000D02*
X96410000Y-60520000D01*
X98510000Y-60520000D02*
X98950000Y-60520000D01*
X96000000Y-62340000D02*
X96410000Y-62340000D01*
X98510000Y-62340000D02*
X98950000Y-62340000D01*
X96000000Y-63060000D02*
X96410000Y-63060000D01*
X98510000Y-63060000D02*
X98950000Y-63060000D01*
X87370000Y-51270000D02*
X96000000Y-51270000D01*
X87370000Y-53810000D02*
X96000000Y-53810000D01*
X87370000Y-56350000D02*
X96000000Y-56350000D01*
X87370000Y-58890000D02*
X96000000Y-58890000D01*
X87370000Y-61430000D02*
X96000000Y-61430000D01*
X87370000Y-48670000D02*
X96000000Y-48670000D01*
X96000000Y-48670000D02*
X96000000Y-64030000D01*
X87370000Y-64030000D02*
X96000000Y-64030000D01*
X87370000Y-48670000D02*
X87370000Y-64030000D01*
X101110000Y-48670000D02*
X101110000Y-50000000D01*
X100000000Y-48670000D02*
X101110000Y-48670000D01*
%TO.C,J2*%
D10*
X120316666Y-64922380D02*
X120316666Y-65636666D01*
X120269047Y-65779523D01*
X120173809Y-65874761D01*
X120030952Y-65922380D01*
X119935714Y-65922380D01*
X120745238Y-65017619D02*
X120792857Y-64970000D01*
X120888095Y-64922380D01*
X121126190Y-64922380D01*
X121221428Y-64970000D01*
X121269047Y-65017619D01*
X121316666Y-65112857D01*
X121316666Y-65208095D01*
X121269047Y-65350952D01*
X120697619Y-65922380D01*
X121316666Y-65922380D01*
%TO.C,J1*%
X94016666Y-46682380D02*
X94016666Y-47396666D01*
X93969047Y-47539523D01*
X93873809Y-47634761D01*
X93730952Y-47682380D01*
X93635714Y-47682380D01*
X95016666Y-47682380D02*
X94445238Y-47682380D01*
X94730952Y-47682380D02*
X94730952Y-46682380D01*
X94635714Y-46825238D01*
X94540476Y-46920476D01*
X94445238Y-46968095D01*
%TD*%
M02*
