M48
; DRILL file {KiCad 5.1.9+dfsg1-1~bpo10+1} date Sun Nov 27 17:15:45 2022
; FORMAT={-:-/ absolute / inch / decimal}
; #@! TF.CreationDate,2022-11-27T17:15:45+01:00
; #@! TF.GenerationSoftware,Kicad,Pcbnew,5.1.9+dfsg1-1~bpo10+1
; #@! TF.FileFunction,Plated,1,2,PTH
FMAT,2
INCH
T1C0.0118
T2C0.0394
%
G90
G05
T1
X4.1331Y-1.9496
X4.1634Y-1.9783
X4.1937Y-1.9496
X4.2549Y-2.2726
X4.3809Y-2.2431
X4.3906Y-2.1189
X4.4283Y-2.1189
X4.4783Y-1.736
X4.4783Y-1.786
X4.4783Y-1.836
X4.4783Y-1.886
T2
X3.887Y-1.7185
X3.887Y-1.8185
X3.887Y-1.9185
X3.887Y-2.0185
X3.887Y-2.1185
X3.887Y-2.2185
X3.987Y-1.7185
X3.987Y-1.8185
X3.987Y-1.9185
X3.987Y-2.0185
X3.987Y-2.1185
X3.987Y-2.2185
T0
M30
