G04 #@! TF.GenerationSoftware,KiCad,Pcbnew,5.1.9+dfsg1-1~bpo10+1*
G04 #@! TF.CreationDate,2022-11-27T17:15:41+01:00*
G04 #@! TF.ProjectId,FLASHTEMP,464c4153-4854-4454-9d50-2e6b69636164,rev?*
G04 #@! TF.SameCoordinates,Original*
G04 #@! TF.FileFunction,Copper,L2,Bot*
G04 #@! TF.FilePolarity,Positive*
%FSLAX46Y46*%
G04 Gerber Fmt 4.6, Leading zero omitted, Abs format (unit mm)*
G04 Created by KiCad (PCBNEW 5.1.9+dfsg1-1~bpo10+1) date 2022-11-27 17:15:41*
%MOMM*%
%LPD*%
G01*
G04 APERTURE LIST*
G04 #@! TA.AperFunction,ComponentPad*
%ADD10R,1.700000X1.700000*%
G04 #@! TD*
G04 #@! TA.AperFunction,ComponentPad*
%ADD11O,1.700000X1.700000*%
G04 #@! TD*
G04 #@! TA.AperFunction,ViaPad*
%ADD12C,0.450000*%
G04 #@! TD*
G04 #@! TA.AperFunction,Conductor*
%ADD13C,0.400000*%
G04 #@! TD*
G04 #@! TA.AperFunction,Conductor*
%ADD14C,0.152400*%
G04 #@! TD*
G04 #@! TA.AperFunction,Conductor*
%ADD15C,0.500000*%
G04 #@! TD*
G04 #@! TA.AperFunction,Conductor*
%ADD16C,0.200000*%
G04 #@! TD*
G04 #@! TA.AperFunction,Conductor*
%ADD17C,0.100000*%
G04 #@! TD*
G04 APERTURE END LIST*
D10*
X101270000Y-56350000D03*
D11*
X98730000Y-56350000D03*
X101270000Y-53810000D03*
X98730000Y-53810000D03*
X101270000Y-51270000D03*
X98730000Y-51270000D03*
X101270000Y-48730000D03*
X98730000Y-48730000D03*
X101270000Y-46190000D03*
X98730000Y-46190000D03*
X101270000Y-43650000D03*
X98730000Y-43650000D03*
D12*
X111275000Y-56975000D03*
X111520000Y-53820000D03*
X108075000Y-57725000D03*
X113750000Y-44095000D03*
X105750000Y-50250000D03*
X106520000Y-49520000D03*
X104980000Y-49520000D03*
X112480000Y-53820000D03*
X113750000Y-45365000D03*
X113750000Y-46635000D03*
X113750000Y-47905000D03*
D13*
X105020000Y-49520000D02*
X105750000Y-50250000D01*
D14*
X104980000Y-49520000D02*
X105020000Y-49520000D01*
D13*
X106480000Y-49520000D02*
X105750000Y-50250000D01*
D14*
X106520000Y-49520000D02*
X106480000Y-49520000D01*
D13*
X105750000Y-51870000D02*
X101270000Y-56350000D01*
X105750000Y-50250000D02*
X105750000Y-51870000D01*
D15*
X98730000Y-56350000D02*
X101270000Y-56350000D01*
D13*
X109950000Y-56350000D02*
X112480000Y-53820000D01*
X101270000Y-56350000D02*
X109950000Y-56350000D01*
D14*
X113750000Y-45365000D02*
X107565000Y-45365000D01*
X105850000Y-43650000D02*
X101270000Y-43650000D01*
X107565000Y-45365000D02*
X105850000Y-43650000D01*
X113750000Y-46635000D02*
X107265000Y-46635000D01*
X106820000Y-46190000D02*
X101270000Y-46190000D01*
X107265000Y-46635000D02*
X106820000Y-46190000D01*
X113750000Y-47905000D02*
X107595000Y-47905000D01*
X106770000Y-48730000D02*
X101270000Y-48730000D01*
X107595000Y-47905000D02*
X106770000Y-48730000D01*
D16*
X114191000Y-44922117D02*
X114148414Y-44879531D01*
X114046048Y-44811132D01*
X113932306Y-44764019D01*
X113811557Y-44740000D01*
X113688443Y-44740000D01*
X113567694Y-44764019D01*
X113453952Y-44811132D01*
X113351586Y-44879531D01*
X113342317Y-44888800D01*
X107762249Y-44888800D01*
X106203266Y-43329818D01*
X106188353Y-43311647D01*
X106115843Y-43252138D01*
X106033116Y-43207920D01*
X105943351Y-43180690D01*
X105873394Y-43173800D01*
X105873386Y-43173800D01*
X105850000Y-43171497D01*
X105826614Y-43173800D01*
X102425741Y-43173800D01*
X102377735Y-43057903D01*
X102240938Y-42853172D01*
X102066828Y-42679062D01*
X101862097Y-42542265D01*
X101634611Y-42448037D01*
X101393114Y-42400000D01*
X101146886Y-42400000D01*
X100905389Y-42448037D01*
X100677903Y-42542265D01*
X100473172Y-42679062D01*
X100299062Y-42853172D01*
X100162265Y-43057903D01*
X100068037Y-43285389D01*
X100020000Y-43526886D01*
X100020000Y-43773114D01*
X100068037Y-44014611D01*
X100162265Y-44242097D01*
X100299062Y-44446828D01*
X100473172Y-44620938D01*
X100677903Y-44757735D01*
X100905389Y-44851963D01*
X101146886Y-44900000D01*
X101393114Y-44900000D01*
X101634611Y-44851963D01*
X101862097Y-44757735D01*
X102066828Y-44620938D01*
X102240938Y-44446828D01*
X102377735Y-44242097D01*
X102425741Y-44126200D01*
X105652752Y-44126200D01*
X107211739Y-45685188D01*
X107226647Y-45703353D01*
X107244812Y-45718261D01*
X107244817Y-45718266D01*
X107289873Y-45755242D01*
X107299157Y-45762862D01*
X107353929Y-45792138D01*
X107381884Y-45807080D01*
X107471648Y-45834310D01*
X107480376Y-45835170D01*
X107541606Y-45841200D01*
X107541613Y-45841200D01*
X107564999Y-45843503D01*
X107588385Y-45841200D01*
X113342317Y-45841200D01*
X113351586Y-45850469D01*
X113453952Y-45918868D01*
X113567694Y-45965981D01*
X113688443Y-45990000D01*
X113811557Y-45990000D01*
X113932306Y-45965981D01*
X114046048Y-45918868D01*
X114148414Y-45850469D01*
X114191000Y-45807883D01*
X114191000Y-46192117D01*
X114148414Y-46149531D01*
X114046048Y-46081132D01*
X113932306Y-46034019D01*
X113811557Y-46010000D01*
X113688443Y-46010000D01*
X113567694Y-46034019D01*
X113453952Y-46081132D01*
X113351586Y-46149531D01*
X113342317Y-46158800D01*
X107462249Y-46158800D01*
X107173265Y-45869817D01*
X107158353Y-45851647D01*
X107085843Y-45792138D01*
X107003116Y-45747920D01*
X106913351Y-45720690D01*
X106843394Y-45713800D01*
X106843386Y-45713800D01*
X106820000Y-45711497D01*
X106796614Y-45713800D01*
X102425741Y-45713800D01*
X102377735Y-45597903D01*
X102240938Y-45393172D01*
X102066828Y-45219062D01*
X101862097Y-45082265D01*
X101634611Y-44988037D01*
X101393114Y-44940000D01*
X101146886Y-44940000D01*
X100905389Y-44988037D01*
X100677903Y-45082265D01*
X100473172Y-45219062D01*
X100299062Y-45393172D01*
X100162265Y-45597903D01*
X100068037Y-45825389D01*
X100020000Y-46066886D01*
X100020000Y-46313114D01*
X100068037Y-46554611D01*
X100162265Y-46782097D01*
X100299062Y-46986828D01*
X100473172Y-47160938D01*
X100677903Y-47297735D01*
X100905389Y-47391963D01*
X101146886Y-47440000D01*
X101393114Y-47440000D01*
X101634611Y-47391963D01*
X101862097Y-47297735D01*
X102066828Y-47160938D01*
X102240938Y-46986828D01*
X102377735Y-46782097D01*
X102425741Y-46666200D01*
X106622752Y-46666200D01*
X106911739Y-46955187D01*
X106926647Y-46973353D01*
X106944812Y-46988261D01*
X106944817Y-46988266D01*
X106989873Y-47025242D01*
X106999157Y-47032862D01*
X107081884Y-47077080D01*
X107171648Y-47104310D01*
X107180376Y-47105170D01*
X107241606Y-47111200D01*
X107241613Y-47111200D01*
X107264999Y-47113503D01*
X107288385Y-47111200D01*
X113342317Y-47111200D01*
X113351586Y-47120469D01*
X113453952Y-47188868D01*
X113567694Y-47235981D01*
X113688443Y-47260000D01*
X113811557Y-47260000D01*
X113932306Y-47235981D01*
X114046048Y-47188868D01*
X114148414Y-47120469D01*
X114191000Y-47077883D01*
X114191000Y-47462117D01*
X114148414Y-47419531D01*
X114046048Y-47351132D01*
X113932306Y-47304019D01*
X113811557Y-47280000D01*
X113688443Y-47280000D01*
X113567694Y-47304019D01*
X113453952Y-47351132D01*
X113351586Y-47419531D01*
X113342317Y-47428800D01*
X107618385Y-47428800D01*
X107594999Y-47426497D01*
X107571613Y-47428800D01*
X107571606Y-47428800D01*
X107510376Y-47434830D01*
X107501648Y-47435690D01*
X107411884Y-47462920D01*
X107329157Y-47507138D01*
X107329155Y-47507139D01*
X107329156Y-47507139D01*
X107274817Y-47551734D01*
X107274812Y-47551739D01*
X107256647Y-47566647D01*
X107241739Y-47584812D01*
X106572752Y-48253800D01*
X102425741Y-48253800D01*
X102377735Y-48137903D01*
X102240938Y-47933172D01*
X102066828Y-47759062D01*
X101862097Y-47622265D01*
X101634611Y-47528037D01*
X101393114Y-47480000D01*
X101146886Y-47480000D01*
X100905389Y-47528037D01*
X100677903Y-47622265D01*
X100473172Y-47759062D01*
X100299062Y-47933172D01*
X100162265Y-48137903D01*
X100068037Y-48365389D01*
X100020000Y-48606886D01*
X100020000Y-48853114D01*
X100068037Y-49094611D01*
X100162265Y-49322097D01*
X100299062Y-49526828D01*
X100473172Y-49700938D01*
X100677903Y-49837735D01*
X100905389Y-49931963D01*
X101146886Y-49980000D01*
X101393114Y-49980000D01*
X101634611Y-49931963D01*
X101862097Y-49837735D01*
X102066828Y-49700938D01*
X102240938Y-49526828D01*
X102377735Y-49322097D01*
X102425741Y-49206200D01*
X104437994Y-49206200D01*
X104426132Y-49223952D01*
X104379019Y-49337694D01*
X104355000Y-49458443D01*
X104355000Y-49581557D01*
X104379019Y-49702306D01*
X104426132Y-49816048D01*
X104494531Y-49918414D01*
X104581586Y-50005469D01*
X104683952Y-50073868D01*
X104754607Y-50103134D01*
X105150000Y-50498528D01*
X105150001Y-51621471D01*
X102368848Y-54402624D01*
X102459780Y-54193325D01*
X102472223Y-54152283D01*
X102410175Y-53960000D01*
X101420000Y-53960000D01*
X101420000Y-54950974D01*
X101612284Y-55012230D01*
X101840251Y-54922353D01*
X101865138Y-54906334D01*
X101673408Y-55098065D01*
X100420000Y-55098065D01*
X100341586Y-55105788D01*
X100266186Y-55128660D01*
X100196697Y-55165803D01*
X100135789Y-55215789D01*
X100085803Y-55276697D01*
X100048660Y-55346186D01*
X100025788Y-55421586D01*
X100018065Y-55500000D01*
X100018065Y-55700000D01*
X99799045Y-55700000D01*
X99700938Y-55553172D01*
X99526828Y-55379062D01*
X99322097Y-55242265D01*
X99094611Y-55148037D01*
X98853114Y-55100000D01*
X98606886Y-55100000D01*
X98365389Y-55148037D01*
X98137903Y-55242265D01*
X97933172Y-55379062D01*
X97759062Y-55553172D01*
X97622265Y-55757903D01*
X97528037Y-55985389D01*
X97480000Y-56226886D01*
X97480000Y-56473114D01*
X97528037Y-56714611D01*
X97622265Y-56942097D01*
X97759062Y-57146828D01*
X97933172Y-57320938D01*
X98137903Y-57457735D01*
X98365389Y-57551963D01*
X98606886Y-57600000D01*
X98853114Y-57600000D01*
X99094611Y-57551963D01*
X99322097Y-57457735D01*
X99526828Y-57320938D01*
X99700938Y-57146828D01*
X99799045Y-57000000D01*
X100018065Y-57000000D01*
X100018065Y-57200000D01*
X100025788Y-57278414D01*
X100048660Y-57353814D01*
X100085803Y-57423303D01*
X100135789Y-57484211D01*
X100196697Y-57534197D01*
X100266186Y-57571340D01*
X100341586Y-57594212D01*
X100420000Y-57601935D01*
X102120000Y-57601935D01*
X102198414Y-57594212D01*
X102273814Y-57571340D01*
X102343303Y-57534197D01*
X102404211Y-57484211D01*
X102454197Y-57423303D01*
X102491340Y-57353814D01*
X102514212Y-57278414D01*
X102521935Y-57200000D01*
X102521935Y-56950000D01*
X109920526Y-56950000D01*
X109950000Y-56952903D01*
X109979474Y-56950000D01*
X110067621Y-56941318D01*
X110180721Y-56907010D01*
X110284955Y-56851296D01*
X110376317Y-56776317D01*
X110395113Y-56753414D01*
X112773680Y-54374849D01*
X112776048Y-54373868D01*
X112878414Y-54305469D01*
X112965469Y-54218414D01*
X113033868Y-54116048D01*
X113080981Y-54002306D01*
X113105000Y-53881557D01*
X113105000Y-53758443D01*
X113080981Y-53637694D01*
X113033868Y-53523952D01*
X112965469Y-53421586D01*
X112878414Y-53334531D01*
X112776048Y-53266132D01*
X112662306Y-53219019D01*
X112541557Y-53195000D01*
X112418443Y-53195000D01*
X112297694Y-53219019D01*
X112183952Y-53266132D01*
X112081586Y-53334531D01*
X111994531Y-53421586D01*
X111926132Y-53523952D01*
X111925151Y-53526320D01*
X109701473Y-55750000D01*
X102718527Y-55750000D01*
X106153419Y-52315109D01*
X106176317Y-52296317D01*
X106251296Y-52204955D01*
X106307010Y-52100721D01*
X106341318Y-51987621D01*
X106350000Y-51899474D01*
X106352903Y-51870000D01*
X106350000Y-51840526D01*
X106350000Y-50498527D01*
X106745394Y-50103133D01*
X106816048Y-50073868D01*
X106918414Y-50005469D01*
X107005469Y-49918414D01*
X107073868Y-49816048D01*
X107120981Y-49702306D01*
X107145000Y-49581557D01*
X107145000Y-49458443D01*
X107120981Y-49337694D01*
X107073868Y-49223952D01*
X107016552Y-49138173D01*
X107035843Y-49127862D01*
X107108353Y-49068353D01*
X107123266Y-49050182D01*
X107792249Y-48381200D01*
X113342317Y-48381200D01*
X113351586Y-48390469D01*
X113453952Y-48458868D01*
X113567694Y-48505981D01*
X113688443Y-48530000D01*
X113811557Y-48530000D01*
X113932306Y-48505981D01*
X114046048Y-48458868D01*
X114148414Y-48390469D01*
X114191000Y-48347883D01*
X114191001Y-58025000D01*
X95141000Y-58025000D01*
X95141000Y-54152283D01*
X97527777Y-54152283D01*
X97540220Y-54193325D01*
X97637864Y-54418074D01*
X97777478Y-54619455D01*
X97953697Y-54789729D01*
X98159749Y-54922353D01*
X98387716Y-55012230D01*
X98580000Y-54950974D01*
X98580000Y-53960000D01*
X98880000Y-53960000D01*
X98880000Y-54950974D01*
X99072284Y-55012230D01*
X99300251Y-54922353D01*
X99506303Y-54789729D01*
X99682522Y-54619455D01*
X99822136Y-54418074D01*
X99919780Y-54193325D01*
X99932223Y-54152283D01*
X100067777Y-54152283D01*
X100080220Y-54193325D01*
X100177864Y-54418074D01*
X100317478Y-54619455D01*
X100493697Y-54789729D01*
X100699749Y-54922353D01*
X100927716Y-55012230D01*
X101120000Y-54950974D01*
X101120000Y-53960000D01*
X100129825Y-53960000D01*
X100067777Y-54152283D01*
X99932223Y-54152283D01*
X99870175Y-53960000D01*
X98880000Y-53960000D01*
X98580000Y-53960000D01*
X97589825Y-53960000D01*
X97527777Y-54152283D01*
X95141000Y-54152283D01*
X95141000Y-53467717D01*
X97527777Y-53467717D01*
X97589825Y-53660000D01*
X98580000Y-53660000D01*
X98580000Y-52669026D01*
X98880000Y-52669026D01*
X98880000Y-53660000D01*
X99870175Y-53660000D01*
X99932223Y-53467717D01*
X100067777Y-53467717D01*
X100129825Y-53660000D01*
X101120000Y-53660000D01*
X101120000Y-52669026D01*
X101420000Y-52669026D01*
X101420000Y-53660000D01*
X102410175Y-53660000D01*
X102472223Y-53467717D01*
X102459780Y-53426675D01*
X102362136Y-53201926D01*
X102222522Y-53000545D01*
X102046303Y-52830271D01*
X101840251Y-52697647D01*
X101612284Y-52607770D01*
X101420000Y-52669026D01*
X101120000Y-52669026D01*
X100927716Y-52607770D01*
X100699749Y-52697647D01*
X100493697Y-52830271D01*
X100317478Y-53000545D01*
X100177864Y-53201926D01*
X100080220Y-53426675D01*
X100067777Y-53467717D01*
X99932223Y-53467717D01*
X99919780Y-53426675D01*
X99822136Y-53201926D01*
X99682522Y-53000545D01*
X99506303Y-52830271D01*
X99300251Y-52697647D01*
X99072284Y-52607770D01*
X98880000Y-52669026D01*
X98580000Y-52669026D01*
X98387716Y-52607770D01*
X98159749Y-52697647D01*
X97953697Y-52830271D01*
X97777478Y-53000545D01*
X97637864Y-53201926D01*
X97540220Y-53426675D01*
X97527777Y-53467717D01*
X95141000Y-53467717D01*
X95141000Y-51146886D01*
X97480000Y-51146886D01*
X97480000Y-51393114D01*
X97528037Y-51634611D01*
X97622265Y-51862097D01*
X97759062Y-52066828D01*
X97933172Y-52240938D01*
X98137903Y-52377735D01*
X98365389Y-52471963D01*
X98606886Y-52520000D01*
X98853114Y-52520000D01*
X99094611Y-52471963D01*
X99322097Y-52377735D01*
X99526828Y-52240938D01*
X99700938Y-52066828D01*
X99837735Y-51862097D01*
X99931963Y-51634611D01*
X99980000Y-51393114D01*
X99980000Y-51146886D01*
X100020000Y-51146886D01*
X100020000Y-51393114D01*
X100068037Y-51634611D01*
X100162265Y-51862097D01*
X100299062Y-52066828D01*
X100473172Y-52240938D01*
X100677903Y-52377735D01*
X100905389Y-52471963D01*
X101146886Y-52520000D01*
X101393114Y-52520000D01*
X101634611Y-52471963D01*
X101862097Y-52377735D01*
X102066828Y-52240938D01*
X102240938Y-52066828D01*
X102377735Y-51862097D01*
X102471963Y-51634611D01*
X102520000Y-51393114D01*
X102520000Y-51146886D01*
X102471963Y-50905389D01*
X102377735Y-50677903D01*
X102240938Y-50473172D01*
X102066828Y-50299062D01*
X101862097Y-50162265D01*
X101634611Y-50068037D01*
X101393114Y-50020000D01*
X101146886Y-50020000D01*
X100905389Y-50068037D01*
X100677903Y-50162265D01*
X100473172Y-50299062D01*
X100299062Y-50473172D01*
X100162265Y-50677903D01*
X100068037Y-50905389D01*
X100020000Y-51146886D01*
X99980000Y-51146886D01*
X99931963Y-50905389D01*
X99837735Y-50677903D01*
X99700938Y-50473172D01*
X99526828Y-50299062D01*
X99322097Y-50162265D01*
X99094611Y-50068037D01*
X98853114Y-50020000D01*
X98606886Y-50020000D01*
X98365389Y-50068037D01*
X98137903Y-50162265D01*
X97933172Y-50299062D01*
X97759062Y-50473172D01*
X97622265Y-50677903D01*
X97528037Y-50905389D01*
X97480000Y-51146886D01*
X95141000Y-51146886D01*
X95141000Y-48606886D01*
X97480000Y-48606886D01*
X97480000Y-48853114D01*
X97528037Y-49094611D01*
X97622265Y-49322097D01*
X97759062Y-49526828D01*
X97933172Y-49700938D01*
X98137903Y-49837735D01*
X98365389Y-49931963D01*
X98606886Y-49980000D01*
X98853114Y-49980000D01*
X99094611Y-49931963D01*
X99322097Y-49837735D01*
X99526828Y-49700938D01*
X99700938Y-49526828D01*
X99837735Y-49322097D01*
X99931963Y-49094611D01*
X99980000Y-48853114D01*
X99980000Y-48606886D01*
X99931963Y-48365389D01*
X99837735Y-48137903D01*
X99700938Y-47933172D01*
X99526828Y-47759062D01*
X99322097Y-47622265D01*
X99094611Y-47528037D01*
X98853114Y-47480000D01*
X98606886Y-47480000D01*
X98365389Y-47528037D01*
X98137903Y-47622265D01*
X97933172Y-47759062D01*
X97759062Y-47933172D01*
X97622265Y-48137903D01*
X97528037Y-48365389D01*
X97480000Y-48606886D01*
X95141000Y-48606886D01*
X95141000Y-46066886D01*
X97480000Y-46066886D01*
X97480000Y-46313114D01*
X97528037Y-46554611D01*
X97622265Y-46782097D01*
X97759062Y-46986828D01*
X97933172Y-47160938D01*
X98137903Y-47297735D01*
X98365389Y-47391963D01*
X98606886Y-47440000D01*
X98853114Y-47440000D01*
X99094611Y-47391963D01*
X99322097Y-47297735D01*
X99526828Y-47160938D01*
X99700938Y-46986828D01*
X99837735Y-46782097D01*
X99931963Y-46554611D01*
X99980000Y-46313114D01*
X99980000Y-46066886D01*
X99931963Y-45825389D01*
X99837735Y-45597903D01*
X99700938Y-45393172D01*
X99526828Y-45219062D01*
X99322097Y-45082265D01*
X99094611Y-44988037D01*
X98853114Y-44940000D01*
X98606886Y-44940000D01*
X98365389Y-44988037D01*
X98137903Y-45082265D01*
X97933172Y-45219062D01*
X97759062Y-45393172D01*
X97622265Y-45597903D01*
X97528037Y-45825389D01*
X97480000Y-46066886D01*
X95141000Y-46066886D01*
X95141000Y-43526886D01*
X97480000Y-43526886D01*
X97480000Y-43773114D01*
X97528037Y-44014611D01*
X97622265Y-44242097D01*
X97759062Y-44446828D01*
X97933172Y-44620938D01*
X98137903Y-44757735D01*
X98365389Y-44851963D01*
X98606886Y-44900000D01*
X98853114Y-44900000D01*
X99094611Y-44851963D01*
X99322097Y-44757735D01*
X99526828Y-44620938D01*
X99700938Y-44446828D01*
X99837735Y-44242097D01*
X99931963Y-44014611D01*
X99980000Y-43773114D01*
X99980000Y-43526886D01*
X99931963Y-43285389D01*
X99837735Y-43057903D01*
X99700938Y-42853172D01*
X99526828Y-42679062D01*
X99322097Y-42542265D01*
X99094611Y-42448037D01*
X98853114Y-42400000D01*
X98606886Y-42400000D01*
X98365389Y-42448037D01*
X98137903Y-42542265D01*
X97933172Y-42679062D01*
X97759062Y-42853172D01*
X97622265Y-43057903D01*
X97528037Y-43285389D01*
X97480000Y-43526886D01*
X95141000Y-43526886D01*
X95141000Y-41975000D01*
X114191000Y-41975000D01*
X114191000Y-44922117D01*
G04 #@! TA.AperFunction,Conductor*
D17*
G36*
X114191000Y-44922117D02*
G01*
X114148414Y-44879531D01*
X114046048Y-44811132D01*
X113932306Y-44764019D01*
X113811557Y-44740000D01*
X113688443Y-44740000D01*
X113567694Y-44764019D01*
X113453952Y-44811132D01*
X113351586Y-44879531D01*
X113342317Y-44888800D01*
X107762249Y-44888800D01*
X106203266Y-43329818D01*
X106188353Y-43311647D01*
X106115843Y-43252138D01*
X106033116Y-43207920D01*
X105943351Y-43180690D01*
X105873394Y-43173800D01*
X105873386Y-43173800D01*
X105850000Y-43171497D01*
X105826614Y-43173800D01*
X102425741Y-43173800D01*
X102377735Y-43057903D01*
X102240938Y-42853172D01*
X102066828Y-42679062D01*
X101862097Y-42542265D01*
X101634611Y-42448037D01*
X101393114Y-42400000D01*
X101146886Y-42400000D01*
X100905389Y-42448037D01*
X100677903Y-42542265D01*
X100473172Y-42679062D01*
X100299062Y-42853172D01*
X100162265Y-43057903D01*
X100068037Y-43285389D01*
X100020000Y-43526886D01*
X100020000Y-43773114D01*
X100068037Y-44014611D01*
X100162265Y-44242097D01*
X100299062Y-44446828D01*
X100473172Y-44620938D01*
X100677903Y-44757735D01*
X100905389Y-44851963D01*
X101146886Y-44900000D01*
X101393114Y-44900000D01*
X101634611Y-44851963D01*
X101862097Y-44757735D01*
X102066828Y-44620938D01*
X102240938Y-44446828D01*
X102377735Y-44242097D01*
X102425741Y-44126200D01*
X105652752Y-44126200D01*
X107211739Y-45685188D01*
X107226647Y-45703353D01*
X107244812Y-45718261D01*
X107244817Y-45718266D01*
X107289873Y-45755242D01*
X107299157Y-45762862D01*
X107353929Y-45792138D01*
X107381884Y-45807080D01*
X107471648Y-45834310D01*
X107480376Y-45835170D01*
X107541606Y-45841200D01*
X107541613Y-45841200D01*
X107564999Y-45843503D01*
X107588385Y-45841200D01*
X113342317Y-45841200D01*
X113351586Y-45850469D01*
X113453952Y-45918868D01*
X113567694Y-45965981D01*
X113688443Y-45990000D01*
X113811557Y-45990000D01*
X113932306Y-45965981D01*
X114046048Y-45918868D01*
X114148414Y-45850469D01*
X114191000Y-45807883D01*
X114191000Y-46192117D01*
X114148414Y-46149531D01*
X114046048Y-46081132D01*
X113932306Y-46034019D01*
X113811557Y-46010000D01*
X113688443Y-46010000D01*
X113567694Y-46034019D01*
X113453952Y-46081132D01*
X113351586Y-46149531D01*
X113342317Y-46158800D01*
X107462249Y-46158800D01*
X107173265Y-45869817D01*
X107158353Y-45851647D01*
X107085843Y-45792138D01*
X107003116Y-45747920D01*
X106913351Y-45720690D01*
X106843394Y-45713800D01*
X106843386Y-45713800D01*
X106820000Y-45711497D01*
X106796614Y-45713800D01*
X102425741Y-45713800D01*
X102377735Y-45597903D01*
X102240938Y-45393172D01*
X102066828Y-45219062D01*
X101862097Y-45082265D01*
X101634611Y-44988037D01*
X101393114Y-44940000D01*
X101146886Y-44940000D01*
X100905389Y-44988037D01*
X100677903Y-45082265D01*
X100473172Y-45219062D01*
X100299062Y-45393172D01*
X100162265Y-45597903D01*
X100068037Y-45825389D01*
X100020000Y-46066886D01*
X100020000Y-46313114D01*
X100068037Y-46554611D01*
X100162265Y-46782097D01*
X100299062Y-46986828D01*
X100473172Y-47160938D01*
X100677903Y-47297735D01*
X100905389Y-47391963D01*
X101146886Y-47440000D01*
X101393114Y-47440000D01*
X101634611Y-47391963D01*
X101862097Y-47297735D01*
X102066828Y-47160938D01*
X102240938Y-46986828D01*
X102377735Y-46782097D01*
X102425741Y-46666200D01*
X106622752Y-46666200D01*
X106911739Y-46955187D01*
X106926647Y-46973353D01*
X106944812Y-46988261D01*
X106944817Y-46988266D01*
X106989873Y-47025242D01*
X106999157Y-47032862D01*
X107081884Y-47077080D01*
X107171648Y-47104310D01*
X107180376Y-47105170D01*
X107241606Y-47111200D01*
X107241613Y-47111200D01*
X107264999Y-47113503D01*
X107288385Y-47111200D01*
X113342317Y-47111200D01*
X113351586Y-47120469D01*
X113453952Y-47188868D01*
X113567694Y-47235981D01*
X113688443Y-47260000D01*
X113811557Y-47260000D01*
X113932306Y-47235981D01*
X114046048Y-47188868D01*
X114148414Y-47120469D01*
X114191000Y-47077883D01*
X114191000Y-47462117D01*
X114148414Y-47419531D01*
X114046048Y-47351132D01*
X113932306Y-47304019D01*
X113811557Y-47280000D01*
X113688443Y-47280000D01*
X113567694Y-47304019D01*
X113453952Y-47351132D01*
X113351586Y-47419531D01*
X113342317Y-47428800D01*
X107618385Y-47428800D01*
X107594999Y-47426497D01*
X107571613Y-47428800D01*
X107571606Y-47428800D01*
X107510376Y-47434830D01*
X107501648Y-47435690D01*
X107411884Y-47462920D01*
X107329157Y-47507138D01*
X107329155Y-47507139D01*
X107329156Y-47507139D01*
X107274817Y-47551734D01*
X107274812Y-47551739D01*
X107256647Y-47566647D01*
X107241739Y-47584812D01*
X106572752Y-48253800D01*
X102425741Y-48253800D01*
X102377735Y-48137903D01*
X102240938Y-47933172D01*
X102066828Y-47759062D01*
X101862097Y-47622265D01*
X101634611Y-47528037D01*
X101393114Y-47480000D01*
X101146886Y-47480000D01*
X100905389Y-47528037D01*
X100677903Y-47622265D01*
X100473172Y-47759062D01*
X100299062Y-47933172D01*
X100162265Y-48137903D01*
X100068037Y-48365389D01*
X100020000Y-48606886D01*
X100020000Y-48853114D01*
X100068037Y-49094611D01*
X100162265Y-49322097D01*
X100299062Y-49526828D01*
X100473172Y-49700938D01*
X100677903Y-49837735D01*
X100905389Y-49931963D01*
X101146886Y-49980000D01*
X101393114Y-49980000D01*
X101634611Y-49931963D01*
X101862097Y-49837735D01*
X102066828Y-49700938D01*
X102240938Y-49526828D01*
X102377735Y-49322097D01*
X102425741Y-49206200D01*
X104437994Y-49206200D01*
X104426132Y-49223952D01*
X104379019Y-49337694D01*
X104355000Y-49458443D01*
X104355000Y-49581557D01*
X104379019Y-49702306D01*
X104426132Y-49816048D01*
X104494531Y-49918414D01*
X104581586Y-50005469D01*
X104683952Y-50073868D01*
X104754607Y-50103134D01*
X105150000Y-50498528D01*
X105150001Y-51621471D01*
X102368848Y-54402624D01*
X102459780Y-54193325D01*
X102472223Y-54152283D01*
X102410175Y-53960000D01*
X101420000Y-53960000D01*
X101420000Y-54950974D01*
X101612284Y-55012230D01*
X101840251Y-54922353D01*
X101865138Y-54906334D01*
X101673408Y-55098065D01*
X100420000Y-55098065D01*
X100341586Y-55105788D01*
X100266186Y-55128660D01*
X100196697Y-55165803D01*
X100135789Y-55215789D01*
X100085803Y-55276697D01*
X100048660Y-55346186D01*
X100025788Y-55421586D01*
X100018065Y-55500000D01*
X100018065Y-55700000D01*
X99799045Y-55700000D01*
X99700938Y-55553172D01*
X99526828Y-55379062D01*
X99322097Y-55242265D01*
X99094611Y-55148037D01*
X98853114Y-55100000D01*
X98606886Y-55100000D01*
X98365389Y-55148037D01*
X98137903Y-55242265D01*
X97933172Y-55379062D01*
X97759062Y-55553172D01*
X97622265Y-55757903D01*
X97528037Y-55985389D01*
X97480000Y-56226886D01*
X97480000Y-56473114D01*
X97528037Y-56714611D01*
X97622265Y-56942097D01*
X97759062Y-57146828D01*
X97933172Y-57320938D01*
X98137903Y-57457735D01*
X98365389Y-57551963D01*
X98606886Y-57600000D01*
X98853114Y-57600000D01*
X99094611Y-57551963D01*
X99322097Y-57457735D01*
X99526828Y-57320938D01*
X99700938Y-57146828D01*
X99799045Y-57000000D01*
X100018065Y-57000000D01*
X100018065Y-57200000D01*
X100025788Y-57278414D01*
X100048660Y-57353814D01*
X100085803Y-57423303D01*
X100135789Y-57484211D01*
X100196697Y-57534197D01*
X100266186Y-57571340D01*
X100341586Y-57594212D01*
X100420000Y-57601935D01*
X102120000Y-57601935D01*
X102198414Y-57594212D01*
X102273814Y-57571340D01*
X102343303Y-57534197D01*
X102404211Y-57484211D01*
X102454197Y-57423303D01*
X102491340Y-57353814D01*
X102514212Y-57278414D01*
X102521935Y-57200000D01*
X102521935Y-56950000D01*
X109920526Y-56950000D01*
X109950000Y-56952903D01*
X109979474Y-56950000D01*
X110067621Y-56941318D01*
X110180721Y-56907010D01*
X110284955Y-56851296D01*
X110376317Y-56776317D01*
X110395113Y-56753414D01*
X112773680Y-54374849D01*
X112776048Y-54373868D01*
X112878414Y-54305469D01*
X112965469Y-54218414D01*
X113033868Y-54116048D01*
X113080981Y-54002306D01*
X113105000Y-53881557D01*
X113105000Y-53758443D01*
X113080981Y-53637694D01*
X113033868Y-53523952D01*
X112965469Y-53421586D01*
X112878414Y-53334531D01*
X112776048Y-53266132D01*
X112662306Y-53219019D01*
X112541557Y-53195000D01*
X112418443Y-53195000D01*
X112297694Y-53219019D01*
X112183952Y-53266132D01*
X112081586Y-53334531D01*
X111994531Y-53421586D01*
X111926132Y-53523952D01*
X111925151Y-53526320D01*
X109701473Y-55750000D01*
X102718527Y-55750000D01*
X106153419Y-52315109D01*
X106176317Y-52296317D01*
X106251296Y-52204955D01*
X106307010Y-52100721D01*
X106341318Y-51987621D01*
X106350000Y-51899474D01*
X106352903Y-51870000D01*
X106350000Y-51840526D01*
X106350000Y-50498527D01*
X106745394Y-50103133D01*
X106816048Y-50073868D01*
X106918414Y-50005469D01*
X107005469Y-49918414D01*
X107073868Y-49816048D01*
X107120981Y-49702306D01*
X107145000Y-49581557D01*
X107145000Y-49458443D01*
X107120981Y-49337694D01*
X107073868Y-49223952D01*
X107016552Y-49138173D01*
X107035843Y-49127862D01*
X107108353Y-49068353D01*
X107123266Y-49050182D01*
X107792249Y-48381200D01*
X113342317Y-48381200D01*
X113351586Y-48390469D01*
X113453952Y-48458868D01*
X113567694Y-48505981D01*
X113688443Y-48530000D01*
X113811557Y-48530000D01*
X113932306Y-48505981D01*
X114046048Y-48458868D01*
X114148414Y-48390469D01*
X114191000Y-48347883D01*
X114191001Y-58025000D01*
X95141000Y-58025000D01*
X95141000Y-54152283D01*
X97527777Y-54152283D01*
X97540220Y-54193325D01*
X97637864Y-54418074D01*
X97777478Y-54619455D01*
X97953697Y-54789729D01*
X98159749Y-54922353D01*
X98387716Y-55012230D01*
X98580000Y-54950974D01*
X98580000Y-53960000D01*
X98880000Y-53960000D01*
X98880000Y-54950974D01*
X99072284Y-55012230D01*
X99300251Y-54922353D01*
X99506303Y-54789729D01*
X99682522Y-54619455D01*
X99822136Y-54418074D01*
X99919780Y-54193325D01*
X99932223Y-54152283D01*
X100067777Y-54152283D01*
X100080220Y-54193325D01*
X100177864Y-54418074D01*
X100317478Y-54619455D01*
X100493697Y-54789729D01*
X100699749Y-54922353D01*
X100927716Y-55012230D01*
X101120000Y-54950974D01*
X101120000Y-53960000D01*
X100129825Y-53960000D01*
X100067777Y-54152283D01*
X99932223Y-54152283D01*
X99870175Y-53960000D01*
X98880000Y-53960000D01*
X98580000Y-53960000D01*
X97589825Y-53960000D01*
X97527777Y-54152283D01*
X95141000Y-54152283D01*
X95141000Y-53467717D01*
X97527777Y-53467717D01*
X97589825Y-53660000D01*
X98580000Y-53660000D01*
X98580000Y-52669026D01*
X98880000Y-52669026D01*
X98880000Y-53660000D01*
X99870175Y-53660000D01*
X99932223Y-53467717D01*
X100067777Y-53467717D01*
X100129825Y-53660000D01*
X101120000Y-53660000D01*
X101120000Y-52669026D01*
X101420000Y-52669026D01*
X101420000Y-53660000D01*
X102410175Y-53660000D01*
X102472223Y-53467717D01*
X102459780Y-53426675D01*
X102362136Y-53201926D01*
X102222522Y-53000545D01*
X102046303Y-52830271D01*
X101840251Y-52697647D01*
X101612284Y-52607770D01*
X101420000Y-52669026D01*
X101120000Y-52669026D01*
X100927716Y-52607770D01*
X100699749Y-52697647D01*
X100493697Y-52830271D01*
X100317478Y-53000545D01*
X100177864Y-53201926D01*
X100080220Y-53426675D01*
X100067777Y-53467717D01*
X99932223Y-53467717D01*
X99919780Y-53426675D01*
X99822136Y-53201926D01*
X99682522Y-53000545D01*
X99506303Y-52830271D01*
X99300251Y-52697647D01*
X99072284Y-52607770D01*
X98880000Y-52669026D01*
X98580000Y-52669026D01*
X98387716Y-52607770D01*
X98159749Y-52697647D01*
X97953697Y-52830271D01*
X97777478Y-53000545D01*
X97637864Y-53201926D01*
X97540220Y-53426675D01*
X97527777Y-53467717D01*
X95141000Y-53467717D01*
X95141000Y-51146886D01*
X97480000Y-51146886D01*
X97480000Y-51393114D01*
X97528037Y-51634611D01*
X97622265Y-51862097D01*
X97759062Y-52066828D01*
X97933172Y-52240938D01*
X98137903Y-52377735D01*
X98365389Y-52471963D01*
X98606886Y-52520000D01*
X98853114Y-52520000D01*
X99094611Y-52471963D01*
X99322097Y-52377735D01*
X99526828Y-52240938D01*
X99700938Y-52066828D01*
X99837735Y-51862097D01*
X99931963Y-51634611D01*
X99980000Y-51393114D01*
X99980000Y-51146886D01*
X100020000Y-51146886D01*
X100020000Y-51393114D01*
X100068037Y-51634611D01*
X100162265Y-51862097D01*
X100299062Y-52066828D01*
X100473172Y-52240938D01*
X100677903Y-52377735D01*
X100905389Y-52471963D01*
X101146886Y-52520000D01*
X101393114Y-52520000D01*
X101634611Y-52471963D01*
X101862097Y-52377735D01*
X102066828Y-52240938D01*
X102240938Y-52066828D01*
X102377735Y-51862097D01*
X102471963Y-51634611D01*
X102520000Y-51393114D01*
X102520000Y-51146886D01*
X102471963Y-50905389D01*
X102377735Y-50677903D01*
X102240938Y-50473172D01*
X102066828Y-50299062D01*
X101862097Y-50162265D01*
X101634611Y-50068037D01*
X101393114Y-50020000D01*
X101146886Y-50020000D01*
X100905389Y-50068037D01*
X100677903Y-50162265D01*
X100473172Y-50299062D01*
X100299062Y-50473172D01*
X100162265Y-50677903D01*
X100068037Y-50905389D01*
X100020000Y-51146886D01*
X99980000Y-51146886D01*
X99931963Y-50905389D01*
X99837735Y-50677903D01*
X99700938Y-50473172D01*
X99526828Y-50299062D01*
X99322097Y-50162265D01*
X99094611Y-50068037D01*
X98853114Y-50020000D01*
X98606886Y-50020000D01*
X98365389Y-50068037D01*
X98137903Y-50162265D01*
X97933172Y-50299062D01*
X97759062Y-50473172D01*
X97622265Y-50677903D01*
X97528037Y-50905389D01*
X97480000Y-51146886D01*
X95141000Y-51146886D01*
X95141000Y-48606886D01*
X97480000Y-48606886D01*
X97480000Y-48853114D01*
X97528037Y-49094611D01*
X97622265Y-49322097D01*
X97759062Y-49526828D01*
X97933172Y-49700938D01*
X98137903Y-49837735D01*
X98365389Y-49931963D01*
X98606886Y-49980000D01*
X98853114Y-49980000D01*
X99094611Y-49931963D01*
X99322097Y-49837735D01*
X99526828Y-49700938D01*
X99700938Y-49526828D01*
X99837735Y-49322097D01*
X99931963Y-49094611D01*
X99980000Y-48853114D01*
X99980000Y-48606886D01*
X99931963Y-48365389D01*
X99837735Y-48137903D01*
X99700938Y-47933172D01*
X99526828Y-47759062D01*
X99322097Y-47622265D01*
X99094611Y-47528037D01*
X98853114Y-47480000D01*
X98606886Y-47480000D01*
X98365389Y-47528037D01*
X98137903Y-47622265D01*
X97933172Y-47759062D01*
X97759062Y-47933172D01*
X97622265Y-48137903D01*
X97528037Y-48365389D01*
X97480000Y-48606886D01*
X95141000Y-48606886D01*
X95141000Y-46066886D01*
X97480000Y-46066886D01*
X97480000Y-46313114D01*
X97528037Y-46554611D01*
X97622265Y-46782097D01*
X97759062Y-46986828D01*
X97933172Y-47160938D01*
X98137903Y-47297735D01*
X98365389Y-47391963D01*
X98606886Y-47440000D01*
X98853114Y-47440000D01*
X99094611Y-47391963D01*
X99322097Y-47297735D01*
X99526828Y-47160938D01*
X99700938Y-46986828D01*
X99837735Y-46782097D01*
X99931963Y-46554611D01*
X99980000Y-46313114D01*
X99980000Y-46066886D01*
X99931963Y-45825389D01*
X99837735Y-45597903D01*
X99700938Y-45393172D01*
X99526828Y-45219062D01*
X99322097Y-45082265D01*
X99094611Y-44988037D01*
X98853114Y-44940000D01*
X98606886Y-44940000D01*
X98365389Y-44988037D01*
X98137903Y-45082265D01*
X97933172Y-45219062D01*
X97759062Y-45393172D01*
X97622265Y-45597903D01*
X97528037Y-45825389D01*
X97480000Y-46066886D01*
X95141000Y-46066886D01*
X95141000Y-43526886D01*
X97480000Y-43526886D01*
X97480000Y-43773114D01*
X97528037Y-44014611D01*
X97622265Y-44242097D01*
X97759062Y-44446828D01*
X97933172Y-44620938D01*
X98137903Y-44757735D01*
X98365389Y-44851963D01*
X98606886Y-44900000D01*
X98853114Y-44900000D01*
X99094611Y-44851963D01*
X99322097Y-44757735D01*
X99526828Y-44620938D01*
X99700938Y-44446828D01*
X99837735Y-44242097D01*
X99931963Y-44014611D01*
X99980000Y-43773114D01*
X99980000Y-43526886D01*
X99931963Y-43285389D01*
X99837735Y-43057903D01*
X99700938Y-42853172D01*
X99526828Y-42679062D01*
X99322097Y-42542265D01*
X99094611Y-42448037D01*
X98853114Y-42400000D01*
X98606886Y-42400000D01*
X98365389Y-42448037D01*
X98137903Y-42542265D01*
X97933172Y-42679062D01*
X97759062Y-42853172D01*
X97622265Y-43057903D01*
X97528037Y-43285389D01*
X97480000Y-43526886D01*
X95141000Y-43526886D01*
X95141000Y-41975000D01*
X114191000Y-41975000D01*
X114191000Y-44922117D01*
G37*
G04 #@! TD.AperFunction*
M02*
