G04 #@! TF.GenerationSoftware,KiCad,Pcbnew,5.1.9+dfsg1-1~bpo10+1*
G04 #@! TF.CreationDate,2022-11-27T17:15:41+01:00*
G04 #@! TF.ProjectId,FLASHTEMP,464c4153-4854-4454-9d50-2e6b69636164,rev?*
G04 #@! TF.SameCoordinates,Original*
G04 #@! TF.FileFunction,Legend,Top*
G04 #@! TF.FilePolarity,Positive*
%FSLAX46Y46*%
G04 Gerber Fmt 4.6, Leading zero omitted, Abs format (unit mm)*
G04 Created by KiCad (PCBNEW 5.1.9+dfsg1-1~bpo10+1) date 2022-11-27 17:15:41*
%MOMM*%
%LPD*%
G01*
G04 APERTURE LIST*
%ADD10C,0.150000*%
%ADD11C,0.120000*%
G04 APERTURE END LIST*
D10*
X114444285Y-48239285D02*
X114015714Y-48239285D01*
X114230000Y-48239285D02*
X114230000Y-47489285D01*
X114158571Y-47596428D01*
X114087142Y-47667857D01*
X114015714Y-47703571D01*
X107114285Y-55239285D02*
X106685714Y-55239285D01*
X106900000Y-55239285D02*
X106900000Y-54489285D01*
X106828571Y-54596428D01*
X106757142Y-54667857D01*
X106685714Y-54703571D01*
D11*
X108455000Y-43275000D02*
X105730000Y-43275000D01*
X105730000Y-43275000D02*
X105730000Y-43535000D01*
X108455000Y-43275000D02*
X111180000Y-43275000D01*
X111180000Y-43275000D02*
X111180000Y-43535000D01*
X108455000Y-48725000D02*
X105730000Y-48725000D01*
X105730000Y-48725000D02*
X105730000Y-48465000D01*
X108455000Y-48725000D02*
X111180000Y-48725000D01*
X111180000Y-48725000D02*
X111180000Y-48465000D01*
X111180000Y-48465000D02*
X112855000Y-48465000D01*
X109853641Y-50620000D02*
X109546359Y-50620000D01*
X109853641Y-51380000D02*
X109546359Y-51380000D01*
X109853641Y-51920000D02*
X109546359Y-51920000D01*
X109853641Y-52680000D02*
X109546359Y-52680000D01*
X109853641Y-49320000D02*
X109546359Y-49320000D01*
X109853641Y-50080000D02*
X109546359Y-50080000D01*
D10*
X108625000Y-54500000D02*
X107550000Y-54500000D01*
X108625000Y-57625000D02*
X111875000Y-57625000D01*
X108625000Y-54375000D02*
X111875000Y-54375000D01*
X108625000Y-57625000D02*
X108625000Y-57400000D01*
X111875000Y-57625000D02*
X111875000Y-57400000D01*
X111875000Y-54375000D02*
X111875000Y-54600000D01*
X108625000Y-54375000D02*
X108625000Y-54500000D01*
D11*
X106892164Y-50610000D02*
X107107836Y-50610000D01*
X106892164Y-49890000D02*
X107107836Y-49890000D01*
X104607836Y-49890000D02*
X104392164Y-49890000D01*
X104607836Y-50610000D02*
X104392164Y-50610000D01*
X103786000Y-54567359D02*
X103786000Y-54874641D01*
X104546000Y-54567359D02*
X104546000Y-54874641D01*
X105036000Y-54567359D02*
X105036000Y-54874641D01*
X105796000Y-54567359D02*
X105796000Y-54874641D01*
X112107836Y-52640000D02*
X111892164Y-52640000D01*
X112107836Y-53360000D02*
X111892164Y-53360000D01*
X97290000Y-57680000D02*
X97290000Y-42320000D01*
X97290000Y-42320000D02*
X94630000Y-42320000D01*
X94630000Y-42320000D02*
X94630000Y-57680000D01*
X94630000Y-57680000D02*
X97290000Y-57680000D01*
X94630000Y-56730000D02*
X88630000Y-56730000D01*
X88630000Y-56730000D02*
X88630000Y-55970000D01*
X88630000Y-55970000D02*
X94630000Y-55970000D01*
X94630000Y-56670000D02*
X88630000Y-56670000D01*
X94630000Y-56550000D02*
X88630000Y-56550000D01*
X94630000Y-56430000D02*
X88630000Y-56430000D01*
X94630000Y-56310000D02*
X88630000Y-56310000D01*
X94630000Y-56190000D02*
X88630000Y-56190000D01*
X94630000Y-56070000D02*
X88630000Y-56070000D01*
X97687071Y-56730000D02*
X97290000Y-56730000D01*
X97687071Y-55970000D02*
X97290000Y-55970000D01*
X100160000Y-56730000D02*
X99772929Y-56730000D01*
X100160000Y-55970000D02*
X99772929Y-55970000D01*
X97290000Y-55080000D02*
X94630000Y-55080000D01*
X94630000Y-54190000D02*
X88630000Y-54190000D01*
X88630000Y-54190000D02*
X88630000Y-53430000D01*
X88630000Y-53430000D02*
X94630000Y-53430000D01*
X97687071Y-54190000D02*
X97290000Y-54190000D01*
X97687071Y-53430000D02*
X97290000Y-53430000D01*
X100227071Y-54190000D02*
X99772929Y-54190000D01*
X100227071Y-53430000D02*
X99772929Y-53430000D01*
X97290000Y-52540000D02*
X94630000Y-52540000D01*
X94630000Y-51650000D02*
X88630000Y-51650000D01*
X88630000Y-51650000D02*
X88630000Y-50890000D01*
X88630000Y-50890000D02*
X94630000Y-50890000D01*
X97687071Y-51650000D02*
X97290000Y-51650000D01*
X97687071Y-50890000D02*
X97290000Y-50890000D01*
X100227071Y-51650000D02*
X99772929Y-51650000D01*
X100227071Y-50890000D02*
X99772929Y-50890000D01*
X97290000Y-50000000D02*
X94630000Y-50000000D01*
X94630000Y-49110000D02*
X88630000Y-49110000D01*
X88630000Y-49110000D02*
X88630000Y-48350000D01*
X88630000Y-48350000D02*
X94630000Y-48350000D01*
X97687071Y-49110000D02*
X97290000Y-49110000D01*
X97687071Y-48350000D02*
X97290000Y-48350000D01*
X100227071Y-49110000D02*
X99772929Y-49110000D01*
X100227071Y-48350000D02*
X99772929Y-48350000D01*
X97290000Y-47460000D02*
X94630000Y-47460000D01*
X94630000Y-46570000D02*
X88630000Y-46570000D01*
X88630000Y-46570000D02*
X88630000Y-45810000D01*
X88630000Y-45810000D02*
X94630000Y-45810000D01*
X97687071Y-46570000D02*
X97290000Y-46570000D01*
X97687071Y-45810000D02*
X97290000Y-45810000D01*
X100227071Y-46570000D02*
X99772929Y-46570000D01*
X100227071Y-45810000D02*
X99772929Y-45810000D01*
X97290000Y-44920000D02*
X94630000Y-44920000D01*
X94630000Y-44030000D02*
X88630000Y-44030000D01*
X88630000Y-44030000D02*
X88630000Y-43270000D01*
X88630000Y-43270000D02*
X94630000Y-43270000D01*
X97687071Y-44030000D02*
X97290000Y-44030000D01*
X97687071Y-43270000D02*
X97290000Y-43270000D01*
X100227071Y-44030000D02*
X99772929Y-44030000D01*
X100227071Y-43270000D02*
X99772929Y-43270000D01*
X102540000Y-56350000D02*
X102540000Y-57620000D01*
X102540000Y-57620000D02*
X101270000Y-57620000D01*
D10*
X107693095Y-41952380D02*
X107693095Y-42761904D01*
X107740714Y-42857142D01*
X107788333Y-42904761D01*
X107883571Y-42952380D01*
X108074047Y-42952380D01*
X108169285Y-42904761D01*
X108216904Y-42857142D01*
X108264523Y-42761904D01*
X108264523Y-41952380D01*
X108645476Y-41952380D02*
X109264523Y-41952380D01*
X108931190Y-42333333D01*
X109074047Y-42333333D01*
X109169285Y-42380952D01*
X109216904Y-42428571D01*
X109264523Y-42523809D01*
X109264523Y-42761904D01*
X109216904Y-42857142D01*
X109169285Y-42904761D01*
X109074047Y-42952380D01*
X108788333Y-42952380D01*
X108693095Y-42904761D01*
X108645476Y-42857142D01*
X111533333Y-51122380D02*
X111200000Y-50646190D01*
X110961904Y-51122380D02*
X110961904Y-50122380D01*
X111342857Y-50122380D01*
X111438095Y-50170000D01*
X111485714Y-50217619D01*
X111533333Y-50312857D01*
X111533333Y-50455714D01*
X111485714Y-50550952D01*
X111438095Y-50598571D01*
X111342857Y-50646190D01*
X110961904Y-50646190D01*
X112438095Y-50122380D02*
X111961904Y-50122380D01*
X111914285Y-50598571D01*
X111961904Y-50550952D01*
X112057142Y-50503333D01*
X112295238Y-50503333D01*
X112390476Y-50550952D01*
X112438095Y-50598571D01*
X112485714Y-50693809D01*
X112485714Y-50931904D01*
X112438095Y-51027142D01*
X112390476Y-51074761D01*
X112295238Y-51122380D01*
X112057142Y-51122380D01*
X111961904Y-51074761D01*
X111914285Y-51027142D01*
X111533333Y-52422380D02*
X111200000Y-51946190D01*
X110961904Y-52422380D02*
X110961904Y-51422380D01*
X111342857Y-51422380D01*
X111438095Y-51470000D01*
X111485714Y-51517619D01*
X111533333Y-51612857D01*
X111533333Y-51755714D01*
X111485714Y-51850952D01*
X111438095Y-51898571D01*
X111342857Y-51946190D01*
X110961904Y-51946190D01*
X112390476Y-51755714D02*
X112390476Y-52422380D01*
X112152380Y-51374761D02*
X111914285Y-52089047D01*
X112533333Y-52089047D01*
X111533333Y-49822380D02*
X111200000Y-49346190D01*
X110961904Y-49822380D02*
X110961904Y-48822380D01*
X111342857Y-48822380D01*
X111438095Y-48870000D01*
X111485714Y-48917619D01*
X111533333Y-49012857D01*
X111533333Y-49155714D01*
X111485714Y-49250952D01*
X111438095Y-49298571D01*
X111342857Y-49346190D01*
X110961904Y-49346190D01*
X111866666Y-48822380D02*
X112485714Y-48822380D01*
X112152380Y-49203333D01*
X112295238Y-49203333D01*
X112390476Y-49250952D01*
X112438095Y-49298571D01*
X112485714Y-49393809D01*
X112485714Y-49631904D01*
X112438095Y-49727142D01*
X112390476Y-49774761D01*
X112295238Y-49822380D01*
X112009523Y-49822380D01*
X111914285Y-49774761D01*
X111866666Y-49727142D01*
X105338095Y-56652380D02*
X105338095Y-57461904D01*
X105385714Y-57557142D01*
X105433333Y-57604761D01*
X105528571Y-57652380D01*
X105719047Y-57652380D01*
X105814285Y-57604761D01*
X105861904Y-57557142D01*
X105909523Y-57461904D01*
X105909523Y-56652380D01*
X106909523Y-57652380D02*
X106338095Y-57652380D01*
X106623809Y-57652380D02*
X106623809Y-56652380D01*
X106528571Y-56795238D01*
X106433333Y-56890476D01*
X106338095Y-56938095D01*
X106833333Y-51857142D02*
X106785714Y-51904761D01*
X106642857Y-51952380D01*
X106547619Y-51952380D01*
X106404761Y-51904761D01*
X106309523Y-51809523D01*
X106261904Y-51714285D01*
X106214285Y-51523809D01*
X106214285Y-51380952D01*
X106261904Y-51190476D01*
X106309523Y-51095238D01*
X106404761Y-51000000D01*
X106547619Y-50952380D01*
X106642857Y-50952380D01*
X106785714Y-51000000D01*
X106833333Y-51047619D01*
X107166666Y-50952380D02*
X107785714Y-50952380D01*
X107452380Y-51333333D01*
X107595238Y-51333333D01*
X107690476Y-51380952D01*
X107738095Y-51428571D01*
X107785714Y-51523809D01*
X107785714Y-51761904D01*
X107738095Y-51857142D01*
X107690476Y-51904761D01*
X107595238Y-51952380D01*
X107309523Y-51952380D01*
X107214285Y-51904761D01*
X107166666Y-51857142D01*
X104333333Y-51767142D02*
X104285714Y-51814761D01*
X104142857Y-51862380D01*
X104047619Y-51862380D01*
X103904761Y-51814761D01*
X103809523Y-51719523D01*
X103761904Y-51624285D01*
X103714285Y-51433809D01*
X103714285Y-51290952D01*
X103761904Y-51100476D01*
X103809523Y-51005238D01*
X103904761Y-50910000D01*
X104047619Y-50862380D01*
X104142857Y-50862380D01*
X104285714Y-50910000D01*
X104333333Y-50957619D01*
X104714285Y-50957619D02*
X104761904Y-50910000D01*
X104857142Y-50862380D01*
X105095238Y-50862380D01*
X105190476Y-50910000D01*
X105238095Y-50957619D01*
X105285714Y-51052857D01*
X105285714Y-51148095D01*
X105238095Y-51290952D01*
X104666666Y-51862380D01*
X105285714Y-51862380D01*
X104618380Y-52987666D02*
X104142190Y-53321000D01*
X104618380Y-53559095D02*
X103618380Y-53559095D01*
X103618380Y-53178142D01*
X103666000Y-53082904D01*
X103713619Y-53035285D01*
X103808857Y-52987666D01*
X103951714Y-52987666D01*
X104046952Y-53035285D01*
X104094571Y-53082904D01*
X104142190Y-53178142D01*
X104142190Y-53559095D01*
X103713619Y-52606714D02*
X103666000Y-52559095D01*
X103618380Y-52463857D01*
X103618380Y-52225761D01*
X103666000Y-52130523D01*
X103713619Y-52082904D01*
X103808857Y-52035285D01*
X103904095Y-52035285D01*
X104046952Y-52082904D01*
X104618380Y-52654333D01*
X104618380Y-52035285D01*
X106068380Y-52887666D02*
X105592190Y-53221000D01*
X106068380Y-53459095D02*
X105068380Y-53459095D01*
X105068380Y-53078142D01*
X105116000Y-52982904D01*
X105163619Y-52935285D01*
X105258857Y-52887666D01*
X105401714Y-52887666D01*
X105496952Y-52935285D01*
X105544571Y-52982904D01*
X105592190Y-53078142D01*
X105592190Y-53459095D01*
X106068380Y-51935285D02*
X106068380Y-52506714D01*
X106068380Y-52221000D02*
X105068380Y-52221000D01*
X105211238Y-52316238D01*
X105306476Y-52411476D01*
X105354095Y-52506714D01*
X110133333Y-53857142D02*
X110085714Y-53904761D01*
X109942857Y-53952380D01*
X109847619Y-53952380D01*
X109704761Y-53904761D01*
X109609523Y-53809523D01*
X109561904Y-53714285D01*
X109514285Y-53523809D01*
X109514285Y-53380952D01*
X109561904Y-53190476D01*
X109609523Y-53095238D01*
X109704761Y-53000000D01*
X109847619Y-52952380D01*
X109942857Y-52952380D01*
X110085714Y-53000000D01*
X110133333Y-53047619D01*
X111085714Y-53952380D02*
X110514285Y-53952380D01*
X110800000Y-53952380D02*
X110800000Y-52952380D01*
X110704761Y-53095238D01*
X110609523Y-53190476D01*
X110514285Y-53238095D01*
X103596666Y-41652380D02*
X103596666Y-42366666D01*
X103549047Y-42509523D01*
X103453809Y-42604761D01*
X103310952Y-42652380D01*
X103215714Y-42652380D01*
X104025238Y-41747619D02*
X104072857Y-41700000D01*
X104168095Y-41652380D01*
X104406190Y-41652380D01*
X104501428Y-41700000D01*
X104549047Y-41747619D01*
X104596666Y-41842857D01*
X104596666Y-41938095D01*
X104549047Y-42080952D01*
X103977619Y-42652380D01*
X104596666Y-42652380D01*
M02*
