G04 #@! TF.GenerationSoftware,KiCad,Pcbnew,5.1.9+dfsg1-1~bpo10+1*
G04 #@! TF.CreationDate,2022-11-27T17:15:41+01:00*
G04 #@! TF.ProjectId,FLASHTEMP,464c4153-4854-4454-9d50-2e6b69636164,rev?*
G04 #@! TF.SameCoordinates,Original*
G04 #@! TF.FileFunction,Paste,Top*
G04 #@! TF.FilePolarity,Positive*
%FSLAX46Y46*%
G04 Gerber Fmt 4.6, Leading zero omitted, Abs format (unit mm)*
G04 Created by KiCad (PCBNEW 5.1.9+dfsg1-1~bpo10+1) date 2022-11-27 17:15:41*
%MOMM*%
%LPD*%
G01*
G04 APERTURE LIST*
%ADD10R,1.150000X0.400000*%
G04 APERTURE END LIST*
G36*
G01*
X105655000Y-47755000D02*
X105655000Y-48055000D01*
G75*
G02*
X105505000Y-48205000I-150000J0D01*
G01*
X104205000Y-48205000D01*
G75*
G02*
X104055000Y-48055000I0J150000D01*
G01*
X104055000Y-47755000D01*
G75*
G02*
X104205000Y-47605000I150000J0D01*
G01*
X105505000Y-47605000D01*
G75*
G02*
X105655000Y-47755000I0J-150000D01*
G01*
G37*
G36*
G01*
X105655000Y-46485000D02*
X105655000Y-46785000D01*
G75*
G02*
X105505000Y-46935000I-150000J0D01*
G01*
X104205000Y-46935000D01*
G75*
G02*
X104055000Y-46785000I0J150000D01*
G01*
X104055000Y-46485000D01*
G75*
G02*
X104205000Y-46335000I150000J0D01*
G01*
X105505000Y-46335000D01*
G75*
G02*
X105655000Y-46485000I0J-150000D01*
G01*
G37*
G36*
G01*
X105655000Y-45215000D02*
X105655000Y-45515000D01*
G75*
G02*
X105505000Y-45665000I-150000J0D01*
G01*
X104205000Y-45665000D01*
G75*
G02*
X104055000Y-45515000I0J150000D01*
G01*
X104055000Y-45215000D01*
G75*
G02*
X104205000Y-45065000I150000J0D01*
G01*
X105505000Y-45065000D01*
G75*
G02*
X105655000Y-45215000I0J-150000D01*
G01*
G37*
G36*
G01*
X105655000Y-43945000D02*
X105655000Y-44245000D01*
G75*
G02*
X105505000Y-44395000I-150000J0D01*
G01*
X104205000Y-44395000D01*
G75*
G02*
X104055000Y-44245000I0J150000D01*
G01*
X104055000Y-43945000D01*
G75*
G02*
X104205000Y-43795000I150000J0D01*
G01*
X105505000Y-43795000D01*
G75*
G02*
X105655000Y-43945000I0J-150000D01*
G01*
G37*
G36*
G01*
X112855000Y-43945000D02*
X112855000Y-44245000D01*
G75*
G02*
X112705000Y-44395000I-150000J0D01*
G01*
X111405000Y-44395000D01*
G75*
G02*
X111255000Y-44245000I0J150000D01*
G01*
X111255000Y-43945000D01*
G75*
G02*
X111405000Y-43795000I150000J0D01*
G01*
X112705000Y-43795000D01*
G75*
G02*
X112855000Y-43945000I0J-150000D01*
G01*
G37*
G36*
G01*
X112855000Y-45215000D02*
X112855000Y-45515000D01*
G75*
G02*
X112705000Y-45665000I-150000J0D01*
G01*
X111405000Y-45665000D01*
G75*
G02*
X111255000Y-45515000I0J150000D01*
G01*
X111255000Y-45215000D01*
G75*
G02*
X111405000Y-45065000I150000J0D01*
G01*
X112705000Y-45065000D01*
G75*
G02*
X112855000Y-45215000I0J-150000D01*
G01*
G37*
G36*
G01*
X112855000Y-46485000D02*
X112855000Y-46785000D01*
G75*
G02*
X112705000Y-46935000I-150000J0D01*
G01*
X111405000Y-46935000D01*
G75*
G02*
X111255000Y-46785000I0J150000D01*
G01*
X111255000Y-46485000D01*
G75*
G02*
X111405000Y-46335000I150000J0D01*
G01*
X112705000Y-46335000D01*
G75*
G02*
X112855000Y-46485000I0J-150000D01*
G01*
G37*
G36*
G01*
X112855000Y-47755000D02*
X112855000Y-48055000D01*
G75*
G02*
X112705000Y-48205000I-150000J0D01*
G01*
X111405000Y-48205000D01*
G75*
G02*
X111255000Y-48055000I0J150000D01*
G01*
X111255000Y-47755000D01*
G75*
G02*
X111405000Y-47605000I150000J0D01*
G01*
X112705000Y-47605000D01*
G75*
G02*
X112855000Y-47755000I0J-150000D01*
G01*
G37*
G36*
G01*
X109460000Y-50815000D02*
X109460000Y-51185000D01*
G75*
G02*
X109325000Y-51320000I-135000J0D01*
G01*
X109055000Y-51320000D01*
G75*
G02*
X108920000Y-51185000I0J135000D01*
G01*
X108920000Y-50815000D01*
G75*
G02*
X109055000Y-50680000I135000J0D01*
G01*
X109325000Y-50680000D01*
G75*
G02*
X109460000Y-50815000I0J-135000D01*
G01*
G37*
G36*
G01*
X110480000Y-50815000D02*
X110480000Y-51185000D01*
G75*
G02*
X110345000Y-51320000I-135000J0D01*
G01*
X110075000Y-51320000D01*
G75*
G02*
X109940000Y-51185000I0J135000D01*
G01*
X109940000Y-50815000D01*
G75*
G02*
X110075000Y-50680000I135000J0D01*
G01*
X110345000Y-50680000D01*
G75*
G02*
X110480000Y-50815000I0J-135000D01*
G01*
G37*
G36*
G01*
X109460000Y-52115000D02*
X109460000Y-52485000D01*
G75*
G02*
X109325000Y-52620000I-135000J0D01*
G01*
X109055000Y-52620000D01*
G75*
G02*
X108920000Y-52485000I0J135000D01*
G01*
X108920000Y-52115000D01*
G75*
G02*
X109055000Y-51980000I135000J0D01*
G01*
X109325000Y-51980000D01*
G75*
G02*
X109460000Y-52115000I0J-135000D01*
G01*
G37*
G36*
G01*
X110480000Y-52115000D02*
X110480000Y-52485000D01*
G75*
G02*
X110345000Y-52620000I-135000J0D01*
G01*
X110075000Y-52620000D01*
G75*
G02*
X109940000Y-52485000I0J135000D01*
G01*
X109940000Y-52115000D01*
G75*
G02*
X110075000Y-51980000I135000J0D01*
G01*
X110345000Y-51980000D01*
G75*
G02*
X110480000Y-52115000I0J-135000D01*
G01*
G37*
G36*
G01*
X109460000Y-49515000D02*
X109460000Y-49885000D01*
G75*
G02*
X109325000Y-50020000I-135000J0D01*
G01*
X109055000Y-50020000D01*
G75*
G02*
X108920000Y-49885000I0J135000D01*
G01*
X108920000Y-49515000D01*
G75*
G02*
X109055000Y-49380000I135000J0D01*
G01*
X109325000Y-49380000D01*
G75*
G02*
X109460000Y-49515000I0J-135000D01*
G01*
G37*
G36*
G01*
X110480000Y-49515000D02*
X110480000Y-49885000D01*
G75*
G02*
X110345000Y-50020000I-135000J0D01*
G01*
X110075000Y-50020000D01*
G75*
G02*
X109940000Y-49885000I0J135000D01*
G01*
X109940000Y-49515000D01*
G75*
G02*
X110075000Y-49380000I135000J0D01*
G01*
X110345000Y-49380000D01*
G75*
G02*
X110480000Y-49515000I0J-135000D01*
G01*
G37*
D10*
X112425000Y-55025000D03*
X112425000Y-55675000D03*
X112425000Y-56325000D03*
X112425000Y-56975000D03*
X108075000Y-56975000D03*
X108075000Y-56325000D03*
X108075000Y-55675000D03*
X108075000Y-55025000D03*
G36*
G01*
X107200000Y-50420000D02*
X107200000Y-50080000D01*
G75*
G02*
X107340000Y-49940000I140000J0D01*
G01*
X107620000Y-49940000D01*
G75*
G02*
X107760000Y-50080000I0J-140000D01*
G01*
X107760000Y-50420000D01*
G75*
G02*
X107620000Y-50560000I-140000J0D01*
G01*
X107340000Y-50560000D01*
G75*
G02*
X107200000Y-50420000I0J140000D01*
G01*
G37*
G36*
G01*
X106240000Y-50420000D02*
X106240000Y-50080000D01*
G75*
G02*
X106380000Y-49940000I140000J0D01*
G01*
X106660000Y-49940000D01*
G75*
G02*
X106800000Y-50080000I0J-140000D01*
G01*
X106800000Y-50420000D01*
G75*
G02*
X106660000Y-50560000I-140000J0D01*
G01*
X106380000Y-50560000D01*
G75*
G02*
X106240000Y-50420000I0J140000D01*
G01*
G37*
G36*
G01*
X104300000Y-50080000D02*
X104300000Y-50420000D01*
G75*
G02*
X104160000Y-50560000I-140000J0D01*
G01*
X103880000Y-50560000D01*
G75*
G02*
X103740000Y-50420000I0J140000D01*
G01*
X103740000Y-50080000D01*
G75*
G02*
X103880000Y-49940000I140000J0D01*
G01*
X104160000Y-49940000D01*
G75*
G02*
X104300000Y-50080000I0J-140000D01*
G01*
G37*
G36*
G01*
X105260000Y-50080000D02*
X105260000Y-50420000D01*
G75*
G02*
X105120000Y-50560000I-140000J0D01*
G01*
X104840000Y-50560000D01*
G75*
G02*
X104700000Y-50420000I0J140000D01*
G01*
X104700000Y-50080000D01*
G75*
G02*
X104840000Y-49940000I140000J0D01*
G01*
X105120000Y-49940000D01*
G75*
G02*
X105260000Y-50080000I0J-140000D01*
G01*
G37*
G36*
G01*
X103981000Y-54961000D02*
X104351000Y-54961000D01*
G75*
G02*
X104486000Y-55096000I0J-135000D01*
G01*
X104486000Y-55366000D01*
G75*
G02*
X104351000Y-55501000I-135000J0D01*
G01*
X103981000Y-55501000D01*
G75*
G02*
X103846000Y-55366000I0J135000D01*
G01*
X103846000Y-55096000D01*
G75*
G02*
X103981000Y-54961000I135000J0D01*
G01*
G37*
G36*
G01*
X103981000Y-53941000D02*
X104351000Y-53941000D01*
G75*
G02*
X104486000Y-54076000I0J-135000D01*
G01*
X104486000Y-54346000D01*
G75*
G02*
X104351000Y-54481000I-135000J0D01*
G01*
X103981000Y-54481000D01*
G75*
G02*
X103846000Y-54346000I0J135000D01*
G01*
X103846000Y-54076000D01*
G75*
G02*
X103981000Y-53941000I135000J0D01*
G01*
G37*
G36*
G01*
X105231000Y-54961000D02*
X105601000Y-54961000D01*
G75*
G02*
X105736000Y-55096000I0J-135000D01*
G01*
X105736000Y-55366000D01*
G75*
G02*
X105601000Y-55501000I-135000J0D01*
G01*
X105231000Y-55501000D01*
G75*
G02*
X105096000Y-55366000I0J135000D01*
G01*
X105096000Y-55096000D01*
G75*
G02*
X105231000Y-54961000I135000J0D01*
G01*
G37*
G36*
G01*
X105231000Y-53941000D02*
X105601000Y-53941000D01*
G75*
G02*
X105736000Y-54076000I0J-135000D01*
G01*
X105736000Y-54346000D01*
G75*
G02*
X105601000Y-54481000I-135000J0D01*
G01*
X105231000Y-54481000D01*
G75*
G02*
X105096000Y-54346000I0J135000D01*
G01*
X105096000Y-54076000D01*
G75*
G02*
X105231000Y-53941000I135000J0D01*
G01*
G37*
G36*
G01*
X111800000Y-52830000D02*
X111800000Y-53170000D01*
G75*
G02*
X111660000Y-53310000I-140000J0D01*
G01*
X111380000Y-53310000D01*
G75*
G02*
X111240000Y-53170000I0J140000D01*
G01*
X111240000Y-52830000D01*
G75*
G02*
X111380000Y-52690000I140000J0D01*
G01*
X111660000Y-52690000D01*
G75*
G02*
X111800000Y-52830000I0J-140000D01*
G01*
G37*
G36*
G01*
X112760000Y-52830000D02*
X112760000Y-53170000D01*
G75*
G02*
X112620000Y-53310000I-140000J0D01*
G01*
X112340000Y-53310000D01*
G75*
G02*
X112200000Y-53170000I0J140000D01*
G01*
X112200000Y-52830000D01*
G75*
G02*
X112340000Y-52690000I140000J0D01*
G01*
X112620000Y-52690000D01*
G75*
G02*
X112760000Y-52830000I0J-140000D01*
G01*
G37*
M02*
